<?xml version="1.0" encoding="utf-8"?>
<!-- Generator: Adobe Illustrator 16.0.0, SVG Export Plug-In . SVG Version: 6.00 Build 0)  -->
<!DOCTYPE svg PUBLIC "-//W3C//DTD SVG 1.1//EN" "http://www.w3.org/Graphics/SVG/1.1/DTD/svg11.dtd">
<svg version="1.1" id="Слой_1" xmlns="http://www.w3.org/2000/svg" xmlns:xlink="http://www.w3.org/1999/xlink" x="0px" y="0px"
	 width="256.9px" height="504.105px" viewBox="138.935 4.9 256.9 504.105" enable-background="new 138.935 4.9 256.9 504.105"
	 xml:space="preserve">
<rect id="backgroundrect" y="0" fill="none" width="512" height="512"/>
<g>
	<title>Layer 1</title>
	<g id="svg_1">
		<path id="svg_2" fill="#B6B6B6" d="M308.535,382.5c0,40.301-0.101,80.601,0.1,121c0,4.4-1,5.601-5.5,5.5
			c-34.3-0.199-68.6-0.199-103,0c-4.7,0-5.8-1.3-5.8-5.899c0.1-80.101,0.1-160.301,0.2-240.4c0-4.399-0.8-6-5.6-5.899
			c-15.2,0.3-30.3,0-45.5,0.199c-3.5,0-4.5-1-4.5-4.5c0.1-25.3,0.2-50.699,0-76c0-3.899,1.4-4.699,4.9-4.6
			c15.2,0.2,30.3-0.1,45.5,0.2c4.3,0.1,5.2-1.3,5.2-5.4c-0.2-22.3-0.2-44.7,0-67c0.2-19.3,4.1-37.6,15.5-53.8
			c12.1-17.2,28.9-27.6,48.6-33.9c14.7-4.699,29.9-6.699,45.2-6.8c29-0.399,58-0.1,87-0.3c4.1,0,5,1.3,5,5.2c-0.101,26-0.2,52,0,78
			c0,4.3-1.3,5.2-5.4,5.2c-18.3-0.2-36.7-0.101-55-0.101c-16.1,0-26.6,10.601-26.6,26.5c0,15.8,0.1,31.7-0.101,47.5
			c0,3.8,1.101,4.8,4.801,4.8c25.699-0.1,51.3,0,77-0.199c3.899,0,5.3,0.899,4.8,5c-2.9,26-5.2,52-9.8,77.8
			c-0.601,3.2-2.601,2.399-4.4,2.399c-15.2,0-30.3,0-45.5,0c-7.3,0-14.7,0.2-22-0.1c-4.1-0.2-5.3,1-5.2,5.2
			C308.535,302.2,308.535,342.3,308.535,382.5z"/>
	</g>
</g>
</svg>
