<?xml version="1.0" encoding="utf-8"?>
<svg version="1.1" id="Layer_1" xmlns="http://www.w3.org/2000/svg" xmlns:xlink="http://www.w3.org/1999/xlink" x="0px" y="0px"
	 width="298.687px" height="586.103px" viewBox="161.028 129.002 298.687 586.103"
	 enable-background="new 161.028 129.002 298.687 586.103" xml:space="preserve">
<g>
	<g>
		<path fill="#4862A3" d="M389.49,231.665c21.277,0,42.67-0.116,63.947,0.116c4.766,0,6.277-1.047,6.277-6.046
			c-0.232-30.229-0.115-60.458,0-90.688c0-4.534-1.047-6.046-5.813-6.046c-33.717,0.232-67.436-0.116-101.152,0.349
			c-17.789,0.117-35.461,2.442-52.551,7.906c-22.905,7.325-42.438,19.417-56.506,39.414c-13.254,18.835-17.789,40.112-18.021,62.551
			c-0.233,25.928-0.233,51.972,0,77.898c0,4.767-1.046,6.395-6.046,6.278c-17.672-0.349-35.229,0-52.901-0.232
			c-4.069-0.116-5.697,0.813-5.697,5.349c0.233,29.415,0.116,58.946,0,88.361c0,4.069,1.163,5.232,5.232,5.232
			c17.672-0.232,35.229,0.116,52.901-0.232c5.581-0.117,6.511,1.744,6.511,6.859c-0.116,93.129-0.116,186.374-0.233,279.503
			c0,5.348,1.279,6.859,6.744,6.859c39.995-0.232,79.874-0.232,119.754,0c5.23,0.116,6.395-1.279,6.395-6.395
			c-0.232-46.972-0.117-93.826-0.117-140.682c0-46.738,0-93.361-0.115-139.983c-0.117-4.884,1.277-6.279,6.045-6.046
			c8.488,0.349,17.092,0.116,25.578,0.116c17.672,0,35.229,0,52.9,0c2.094,0,4.42,0.93,5.117-2.791
			c5.348-29.996,8.021-60.226,11.393-90.454c0.582-4.768-1.045-5.813-5.58-5.813c-29.881,0.232-59.645,0.116-89.525,0.232
			c-4.301,0-5.58-1.163-5.58-5.581c0.232-18.37,0.117-36.855,0.117-55.226C358.564,243.989,370.771,231.665,389.49,231.665z"/>
	</g>
</g>
</svg>
