<svg xmlns="http://www.w3.org/2000/svg" xmlns:xlink="http://www.w3.org/1999/xlink" enable-background="new 0 0 512 512" version="1.1" xml:space="preserve" width="512" height="512" style=""><rect id="backgroundrect" width="100%" height="100%" x="0" y="0" fill="none" stroke="none"/><g class="currentLayer" style=""><title>Layer 1</title><g id="svg_1" class="selected" fill="#b6b6b6" fill-opacity="1"><path d="M308.5347826242447,382.5 c0,40.3 -0.1,80.6 0.1,121 c0,4.4 -1,5.6 -5.5,5.5 c-34.3,-0.2 -68.6,-0.2 -103,0 c-4.7,0 -5.8,-1.3 -5.8,-5.9 c0.1,-80.1 0.1,-160.3 0.2,-240.4 c0,-4.4 -0.8,-6 -5.6,-5.9 c-15.2,0.30000000000000004 -30.3,0 -45.5,0.2 c-3.5,0 -4.5,-1 -4.5,-4.5 c0.1,-25.3 0.2,-50.7 0,-76 c0,-3.9 1.4,-4.7 4.9,-4.6 c15.2,0.2 30.3,-0.1 45.5,0.2 c4.3,0.1 5.2,-1.3 5.2,-5.4 c-0.2,-22.3 -0.2,-44.7 0,-67 c0.2,-19.3 4.1,-37.6 15.5,-53.8 c12.1,-17.2 28.9,-27.6 48.6,-33.9 c14.7,-4.7 29.9,-6.7 45.2,-6.8 c29,-0.4 58,-0.1 87,-0.30000000000000004 c4.1,0 5,1.3 5,5.2 c-0.1,26 -0.2,52 0,78 c0,4.3 -1.3,5.2 -5.4,5.2 c-18.3,-0.2 -36.7,-0.1 -55,-0.1 c-16.1,0 -26.6,10.6 -26.6,26.5 c0,15.8 0.1,31.7 -0.1,47.5 c0,3.8 1.1,4.8 4.8,4.8 c25.7,-0.1 51.3,0 77,-0.2 c3.9,0 5.3,0.9 4.8,5 c-2.9,26 -5.2,52 -9.8,77.8 c-0.6000000000000001,3.2 -2.6,2.4 -4.4,2.4 c-15.2,0 -30.3,0 -45.5,0 c-7.3,0 -14.7,0.2 -22,-0.1 c-4.1,-0.2 -5.3,1 -5.2,5.2 C308.5347826242447,302.2 308.5347826242447,342.3 308.5347826242447,382.5 z" fill="#b6b6b6" id="svg_2" fill-opacity="1"/></g></g></svg>