<svg id="svg" version="1.1" width="2400" height="553" xmlns="http://www.w3.org/2000/svg" xmlns:xlink="http://www.w3.org/1999/xlink" style="display: block;"><g id="svgg"><path id="path0" d="M310.672 0.625 C 310.969 0.969,312.116 2.188,313.222 3.333 C 314.327 4.479,315.909 6.129,316.735 7.000 C 317.562 7.871,319.142 9.521,320.246 10.667 C 321.350 11.813,323.787 14.362,325.663 16.333 C 327.538 18.304,329.941 20.817,331.001 21.917 C 332.062 23.017,333.564 24.589,334.340 25.410 C 335.115 26.232,336.725 27.918,337.917 29.158 C 339.708 31.022,341.866 33.278,343.750 35.257 C 345.449 37.042,347.593 39.284,349.329 41.090 C 350.477 42.285,352.127 44.010,352.995 44.923 C 353.862 45.836,355.439 47.483,356.499 48.583 C 357.559 49.683,359.961 52.196,361.838 54.167 C 363.714 56.137,366.184 58.725,367.327 59.917 C 368.469 61.108,370.192 62.908,371.156 63.917 C 372.120 64.925,373.700 66.575,374.667 67.583 C 375.634 68.592,377.960 71.028,379.837 72.997 C 381.714 74.966,384.079 77.441,385.092 78.497 C 386.991 80.477,389.389 82.982,392.588 86.327 C 393.600 87.385,395.250 89.122,396.255 90.187 L 398.083 92.125 399.042 92.146 L 400.000 92.167 400.000 46.083 L 400.000 0.000 355.066 0.000 L 310.132 0.000 310.672 0.625 " stroke="none" fill="#ff898a" fill-rule="evenodd"></path><path id="path1" d="M0.000 46.083 L 0.000 92.167 199.000 92.167 C 308.450 92.167,398.000 92.115,398.000 92.051 C 398.000 91.987,397.231 91.143,396.292 90.175 C 395.352 89.206,393.721 87.512,392.667 86.410 C 389.595 83.197,387.068 80.557,385.092 78.497 C 384.079 77.441,381.714 74.966,379.837 72.997 C 377.960 71.028,375.634 68.592,374.667 67.583 C 373.700 66.575,372.120 64.925,371.156 63.917 C 370.192 62.908,368.469 61.108,367.327 59.917 C 366.184 58.725,363.714 56.137,361.838 54.167 C 359.961 52.196,357.559 49.683,356.499 48.583 C 355.439 47.483,353.862 45.836,352.995 44.923 C 352.127 44.010,350.477 42.285,349.329 41.090 C 347.593 39.284,345.449 37.042,343.750 35.257 C 341.866 33.278,339.708 31.022,337.917 29.158 C 336.725 27.918,335.115 26.232,334.340 25.410 C 333.564 24.589,332.062 23.017,331.001 21.917 C 329.941 20.817,327.538 18.304,325.663 16.333 C 323.787 14.362,321.350 11.813,320.246 10.667 C 319.142 9.521,317.562 7.871,316.735 7.000 C 315.909 6.129,314.327 4.479,313.222 3.333 C 312.116 2.188,310.969 0.969,310.672 0.625 L 310.132 0.000 155.066 0.000 L 0.000 0.000 0.000 46.083 " stroke="none" fill="#fffeff" fill-rule="evenodd"></path></g></svg>