<svg xmlns="http://www.w3.org/2000/svg" xmlns:xlink="http://www.w3.org/1999/xlink" version="1.1" width="76" height="76" enable-background="new 0 0 96 96" xml:space="preserve"><rect id="backgroundrect" width="100%" height="100%" x="0" y="0" fill="none" stroke="none"/>

<g class="currentLayer" style=""><title>Layer 1</title><g id="surface1" class="selected" fill="#b6b6b6" fill-opacity="1">
	<path fill="#b6b6b6" d="M32,72 V61 c0,-0.555 0.44500000000000006,-1 1,-1 s1,0.44500000000000006 1,1 v11 h4 V59 c0,-0.555 0.44500000000000006,-1 1,-1 s1,0.44500000000000006 1,1 v13 h4 V61 c0,-0.555 0.44500000000000006,-1 1,-1 s1,0.44500000000000006 1,1 v11 h3.516 C49.828,71.453 50,70.742 50,69.844 v-7.883 c0,-4.328 -3.8200000000000003,-10.469 -8.5,-10.469 h-5 c-4.68,0 -8.5,6.148 -8.5,10.469 v7.883 c0,0.8980000000000001 0.17200000000000001,1.609 0.48400000000000004,2.156 H32 z" id="svg_1" fill-opacity="1"/>
	
		<path fill="#b6b6b6" stroke="#455A64" stroke-width="0.25" stroke-linecap="round" stroke-linejoin="round" stroke-miterlimit="10" d="M58.233999999999995,42.391 c0,0 4.03,-0.6560000000000001 6.407,-0.6090000000000001 c2.41,0.016000000000000004 5.141,0.7270000000000001 5.141,0.7270000000000001 " id="svg_2" fill-opacity="1"/>
	
		<path fill="#b6b6b6" stroke="#455A64" stroke-width="0.25" stroke-linecap="round" stroke-linejoin="round" stroke-miterlimit="10" d="M57.983999999999995,43.625 c0,0 4.479,-0.406 6.329,-0.3440000000000001 c2.571,0.06300000000000001 5.319,0.8280000000000001 5.319,0.8280000000000001 " id="svg_3" fill-opacity="1"/>
	
		<path fill="#b6b6b6" stroke="#455A64" stroke-width="0.25" stroke-linecap="round" stroke-linejoin="round" stroke-miterlimit="10" d="M19.328,42.18 c0,0 -5.495,-0.49200000000000005 -7.208,-0.49200000000000005 c-1.729,0 -4.979,0.49200000000000005 -6.55,0.93 " id="svg_4" fill-opacity="1"/>
	
		<path fill="#b6b6b6" stroke="#455A64" stroke-width="0.25" stroke-linecap="round" stroke-linejoin="round" stroke-miterlimit="10" d="M20.359,43.867 c0,0 -5.68,-0.523 -8.266,-0.21900000000000003 c-3.086,0.36700000000000005 -5.789,1.984 -5.789,1.984 " id="svg_5" fill-opacity="1"/>
	<path fill="#b6b6b6" d="M18.352,36.922 C18.352,28.086 27.586,20 39,20 c11.391,0 20.648,8.086 20.648,16.922 S53.022999999999996,52 39,52 S18.352,45.758 18.352,36.922 z" id="svg_6" fill-opacity="1"/>
	<path fill="#b6b6b6" d="M47.172,22.625 c0,0 3.352,-4.625 9.539,-4.625 c2.469,2.461 0.773,9.516 -0.031000000000000007,11.633000000000001 L47.172,22.625 z" id="svg_7" fill-opacity="1"/>
	<path fill="#b6b6b6" d="M30.805,22.625 c0,0 -3.352,-4.625 -9.516,-4.625 c-2.461,2.469 -0.789,9.523 0.016000000000000004,11.641 L30.805,22.625 z" id="svg_8" fill-opacity="1"/>
	<path fill="#b6b6b6" d="M30.211,61.727000000000004 c0,0 -4.695,0 -5.578,0 c-2.438,0 -4.602,-1.07 -5.648,-3.008 c-1.172,-2.164 -2.281,-4.602 -5.172,-6.617 c-0.508,-0.35900000000000004 -0.21100000000000002,-0.8830000000000001 0.789,-0.7660000000000001 c0.977,0.10200000000000001 2.8360000000000003,0.32000000000000006 4.25,2.18 c1.4220000000000002,1.859 2.9610000000000003,3.992 5.625,3.992 c2.633,0 5.492,0.07 6.93,-1.836 L30.211,61.727000000000004 z" id="svg_9" fill-opacity="1"/>
	<path fill="#b6b6b6" d="M38,0 c-20.992,0 -38,17.008 -38,38 s17.008,38 38,38 s38,-17.008 38,-38 S58.992000000000004,0 38,0 zM38,70.063 C20.32,70.063 5.937999999999999,55.68000000000001 5.937999999999999,38 S20.32,5.938000000000001 38,5.938000000000001 S70.063,20.32 70.063,38 S55.68000000000001,70.063 38,70.063 z" id="svg_10" fill-opacity="1"/>
</g></g></svg>