<svg xmlns="http://www.w3.org/2000/svg" width="800" height="365" viewBox="0 0 800 365">
  <defs>
    <style>
      .cls-1 {
        fill: #ff6d6d;
      }

      .cls-1, .cls-2, .cls-3 {
        fill-rule: evenodd;
      }

      .cls-2 {
        fill: #323969;
      }

      .cls-3 {
        fill: #fff;
      }
    </style>
  </defs>
  <path id="Фигура_1" data-name="Фигура 1" class="cls-1" d="M481.553,310.638V62.128C481.553,8.022,490.573,0,512.621,0s23.647,0.524,62.136,23.3S745.108,126.057,768.932,139.787,800,160.243,800,178.617s0.343,25.909-31.068,46.6S601.071,326.869,574.757,341.7,537.165,365,520.388,365,481.553,362.877,481.553,310.638Z"/>
  <path id="Start" class="cls-2" d="M99.776,102.662a52.906,52.906,0,0,0-18.14-11.533,63.621,63.621,0,0,0-22.963-3.984,53.2,53.2,0,0,0-19.87,3.46,43.462,43.462,0,0,0-14.522,9.226,40.049,40.049,0,0,0-12.058,28.622q0,9.961,3.093,16.722a33.692,33.692,0,0,0,8.126,11.27,42.921,42.921,0,0,0,11.482,7.339,133.057,133.057,0,0,0,13.212,4.98q6.763,2.149,13.212,4.193a56.872,56.872,0,0,1,11.482,4.98,25.667,25.667,0,0,1,8.126,7.287q3.092,4.352,3.093,11.165a28.906,28.906,0,0,1-2.1,11.218,24.311,24.311,0,0,1-6.029,8.649,27.367,27.367,0,0,1-9.594,5.609,38.716,38.716,0,0,1-12.9,1.992A40.543,40.543,0,0,1,38.7,221.5a54.006,54.006,0,0,1-10.276-5.189,83.752,83.752,0,0,1-7.078-5.19q-2.831-2.358-5.033-2.359a4.781,4.781,0,0,0-2.674.787,7.711,7.711,0,0,0-2.045,1.939l-5.872,9.645a62.3,62.3,0,0,0,20.5,14.311A65.154,65.154,0,0,0,52.8,240.737a58.251,58.251,0,0,0,21.338-3.67A45.862,45.862,0,0,0,89.973,227a42.672,42.672,0,0,0,9.8-15.045,50.714,50.714,0,0,0,3.356-18.5q0-9.33-3.094-15.726a33.226,33.226,0,0,0-8.178-10.8,46.5,46.5,0,0,0-11.534-7.286q-6.449-2.883-13.212-5.19T53.9,150a62.52,62.52,0,0,1-11.534-5.085,26.58,26.58,0,0,1-8.179-7.076A16.948,16.948,0,0,1,31.1,127.4a23.435,23.435,0,0,1,1.783-9.173,20.425,20.425,0,0,1,5.3-7.392,25.65,25.65,0,0,1,8.755-4.98,36.459,36.459,0,0,1,12.058-1.834,37.462,37.462,0,0,1,12.32,1.782,48.639,48.639,0,0,1,8.7,3.932,66.108,66.108,0,0,1,5.977,3.931,7.252,7.252,0,0,0,4.142,1.782,4.431,4.431,0,0,0,2.726-.786,8.148,8.148,0,0,0,1.992-2.359Zm72.559,135.506a34.77,34.77,0,0,0,11.639-7.077l-5.452-8.911A3.217,3.217,0,0,0,175.9,220.4a3.5,3.5,0,0,0-1.939.786q-1.1.786-2.674,1.73a21.95,21.95,0,0,1-3.723,1.73,14.817,14.817,0,0,1-5.085.786,11.348,11.348,0,0,1-8.388-3.25q-3.252-3.249-3.251-9.96V148.477h30.408V134.953H150.84V98.363H141.4a4.334,4.334,0,0,0-2.936,1,3.96,3.96,0,0,0-1.363,2.569l-4.3,32.815-17.406,2.2v7.443a3.865,3.865,0,0,0,1.154,3.093,4.173,4.173,0,0,0,2.831,1h12.792v65q0,13.21,6.763,20.234t19.346,7.025A39.535,39.535,0,0,0,172.335,238.168Zm109.99-67.045a52.867,52.867,0,0,0-2.412-16.356,34.677,34.677,0,0,0-7.13-12.685,32.492,32.492,0,0,0-11.639-8.178,40.25,40.25,0,0,0-15.833-2.935,58.636,58.636,0,0,0-22.544,4.193,60.668,60.668,0,0,0-18.978,12.686l3.355,5.976a7.578,7.578,0,0,0,2.254,2.464,5.588,5.588,0,0,0,3.3,1,8.476,8.476,0,0,0,4.876-1.73q2.463-1.73,5.872-3.879a43.433,43.433,0,0,1,8.074-3.879A33.2,33.2,0,0,1,243,146.066q10.382,0,15.676,6.384t5.3,18.83v8.335q-18.036,0-30.513,2.893t-20.184,7.417q-7.707,4.524-11.167,10.363a23.5,23.5,0,0,0-3.46,12.15,30.781,30.781,0,0,0,2.359,12.571,24.77,24.77,0,0,0,6.344,8.785A26.358,26.358,0,0,0,216.738,239a37.711,37.711,0,0,0,11.587,1.735,53.906,53.906,0,0,0,11.062-1.049,43.439,43.439,0,0,0,9.384-3.093,46.871,46.871,0,0,0,8.389-5.032q3.982-2.988,8.178-6.762l2.1,9.855q0.523,2.727,2.2,3.564a9.859,9.859,0,0,0,4.4.839h8.284V171.123Zm-55.259,55.613a14.438,14.438,0,0,1-5.452-2.848,13.758,13.758,0,0,1-3.67-5.009,17.765,17.765,0,0,1-1.363-7.277,13.428,13.428,0,0,1,2.569-8.013,20.461,20.461,0,0,1,8.231-6.222,61.324,61.324,0,0,1,14.68-4.271,125.243,125.243,0,0,1,21.914-1.634v21.911a59.751,59.751,0,0,1-6.448,5.976,40.726,40.726,0,0,1-6.921,4.456,35.544,35.544,0,0,1-7.707,2.831,38.052,38.052,0,0,1-9.017,1A24.8,24.8,0,0,1,227.066,226.736ZM329.3,239.059V171.437q4.4-10.8,10.957-16.46t16.305-5.661a28.447,28.447,0,0,1,8.493,1,16.266,16.266,0,0,0,4.509,1,3.151,3.151,0,0,0,3.25-2.621l2.412-13.944a27.856,27.856,0,0,0-6.606-2.778,31.749,31.749,0,0,0-26.79,5.242q-8.022,6.239-13.474,17.351L327.1,137.993a7.079,7.079,0,0,0-1.573-3.984q-1.155-1.152-4.194-1.153H310.633v106.2H329.3Zm112.089-.891a34.77,34.77,0,0,0,11.639-7.077l-5.452-8.911a3.217,3.217,0,0,0-2.622-1.782,3.5,3.5,0,0,0-1.94.786q-1.1.786-2.673,1.73a21.95,21.95,0,0,1-3.723,1.73,14.817,14.817,0,0,1-5.085.786,11.347,11.347,0,0,1-8.388-3.25q-3.252-3.249-3.251-9.96V148.477H450.3V134.953H419.891V98.363h-9.437a4.334,4.334,0,0,0-2.936,1,3.96,3.96,0,0,0-1.363,2.569l-4.3,32.815-17.406,2.2v7.443a3.865,3.865,0,0,0,1.154,3.093,4.173,4.173,0,0,0,2.831,1h12.792v65q0,13.21,6.763,20.234t19.346,7.025A39.539,39.539,0,0,0,441.386,238.168Z"/>
  <path id="Ex" class="cls-3" d="M507.205,88.823V239.059h92.587V222.494h-72.14V171.227h58.4V155.292h-58.4v-49.9h72.14V88.823H507.205ZM613.736,239.059h16.672a4.463,4.463,0,0,0,3.3-1.2,21.091,21.091,0,0,0,2.254-2.674l24.746-36.17a18.989,18.989,0,0,0,2.2-5.452l26.738,41.622a11.024,11.024,0,0,0,2.149,2.674,5.137,5.137,0,0,0,3.618,1.2h17.93L676.125,183.6l35.755-50.743h-17.2a3.912,3.912,0,0,0-2.622.891,13,13,0,0,0-2.1,2.359l-22.858,33.549a27.6,27.6,0,0,0-2.726,5.871l-26-39.839a6.978,6.978,0,0,0-1.887-2.1,5.984,5.984,0,0,0-3.356-.734H615.2l35.755,51.791Z"/>
</svg>
