<?xml version="1.0" encoding="utf-8"?>
<!-- Generator: Adobe Illustrator 16.0.0, SVG Export Plug-In . SVG Version: 6.00 Build 0)  -->
<!DOCTYPE svg PUBLIC "-//W3C//DTD SVG 1.1//EN" "http://www.w3.org/Graphics/SVG/1.1/DTD/svg11.dtd">
<svg version="1.1" id="Layer_1" xmlns="http://www.w3.org/2000/svg" xmlns:xlink="http://www.w3.org/1999/xlink" x="0px" y="0px"
	 width="595.281px" height="841.891px" viewBox="0 0 595.281 841.891" enable-background="new 0 0 595.281 841.891"
	 xml:space="preserve">
<path fill="#323969" d="M595.281,420.953c0-164.396-133.26-297.644-297.636-297.644C133.26,123.309,0,256.555,0,420.953
	c0,164.371,133.259,297.629,297.645,297.629C462.021,718.581,595.281,585.323,595.281,420.953z"/>
<g>
	<path fill="#FFFFFF" d="M311.261,277.976c-4.09-2.221-9.07-2.024-12.975,0.51l-114.143,74.136h-42.189
		c-7.013,0-12.697,5.685-12.697,12.696v111.253c0,7.013,5.685,12.697,12.697,12.697h42.189l114.143,74.135
		c2.098,1.361,4.504,2.049,6.918,2.049c2.078,0,4.164-0.511,6.057-1.539c4.092-2.223,6.641-6.503,6.641-11.159V289.137
		C317.9,284.482,315.351,280.197,311.261,277.976z"/>
	<path fill="#FFFFFF" d="M426.408,420.944l36.453-36.454c4.217-4.218,4.217-11.053,0-15.271c-4.217-4.216-11.053-4.216-15.271,0
		l-36.453,36.455l-36.455-36.455c-4.217-4.216-11.053-4.216-15.27,0c-4.217,4.219-4.217,11.054,0,15.271l36.455,36.454
		l-36.455,36.455c-4.217,4.218-4.217,11.053,0,15.271c2.109,2.108,4.873,3.163,7.637,3.163c2.762,0,5.525-1.055,7.635-3.163
		l36.455-36.455l36.453,36.455c2.107,2.108,4.873,3.163,7.635,3.163c2.764,0,5.527-1.055,7.637-3.163
		c4.217-4.219,4.217-11.054,0-15.271L426.408,420.944z"/>
</g>
</svg>
