<svg width="472" height="202" xmlns="http://www.w3.org/2000/svg">

 <g>
  <title>background</title>
  <rect fill="none" id="canvas_background" height="204" width="474" y="-1" x="-1"/>
 </g>
 <g>
  <title>Layer 1</title>
  <g id="layer1">
   <g transform="matrix(12.997776,0,0,-12.997776,389.30313,662.04015) " id="g4163">
    <path d="m-14.447614,38.39348l-1.107,0c-0.039,0 -0.067,0.044 -0.067,0.086c0,0.015 0.589,1.914 0.589,1.914c0.021,0.071 0.023,0.073 0.031,0.073l0.001,0c0.009,0 0.01,-0.002 0.031,-0.073c0,0 0.589,-1.899 0.589,-1.914c0,-0.042 -0.03,-0.086 -0.067,-0.086m1.493,4.345c-0.011,0.038 -0.045,0.066 -0.085,0.069l-4.065,0c-0.041,-0.004 -0.074,-0.031 -0.085,-0.068c0,0 -2.247,-7.418 -2.247,-7.432c0,-0.037 0.029,-0.067 0.067,-0.067l2.687,0c0.021,0.008 0.037,0.028 0.042,0.051l0.313,1c0.01,0.025 0.033,0.042 0.061,0.043l2.479,0.002c0.027,-0.002 0.051,-0.021 0.061,-0.045l0.32,-1c0.005,-0.023 0.021,-0.044 0.042,-0.052c0,0 2.642,0.001 2.644,0.001c0.037,0 0.068,0.028 0.068,0.065c0,0.013 -2.302,7.433 -2.302,7.433" fill="#B6B6B6" id="path4165"/>
   </g>
   <g transform="matrix(12.997776,0,0,-12.997776,508.27177,644.93113) " id="g4167">
    <path d="m-14.447614,38.39348l-1.651,-0.001c0,0 -0.044,0.013 -0.044,0.063l-0.001,0.833c0,0.05 0.044,0.063 0.044,0.063l1.514,0c0.176,0 0.532,-0.088 0.532,-0.495s-0.394,-0.463 -0.394,-0.463m7.916,0.645l3.741,0l0,2.453l-4.81,0c-0.45,0 -1.083,-0.232 -1.446,-0.501c-0.363,-0.269 -0.888,-0.882 -0.888,-1.727c0,-0.845 0.513,-1.502 0.513,-1.502c0.263,-0.326 0.925,-1.005 0.925,-1.005c0.015,-0.016 0.024,-0.037 0.024,-0.061c0,-0.051 -0.041,-0.092 -0.092,-0.092l-3.705,0c-0.451,0.002 -0.482,0.181 -0.482,0.207c0,0.046 0.056,0.075 0.056,0.075c0.169,0.081 0.514,0.35 0.514,0.35c0.732,0.57 0.82,1.352 0.82,1.771c0,0.42 -0.063,1.163 -0.814,1.814c-0.751,0.651 -1.702,0.669 -1.702,0.669l-5.287,0c0,0 0,-7.52 0,-7.522c0,-0.024 0.022,-0.043 0.046,-0.043l2.943,0l0,2.11c0,0.037 0.057,0 0.057,0l1.533,-1.54c0.545,-0.551 1.446,-0.57 1.446,-0.57l5.796,0.001c0.989,0 1.539,0.538 1.69,0.688c0.15,0.151 0.651,0.714 0.651,1.647c0,0.932 -0.426,1.409 -0.608,1.628c-0.162,0.196 -0.808,0.88 -0.943,1.022c-0.016,0.013 -0.026,0.033 -0.026,0.055c0,0.033 0.019,0.064 0.048,0.073" fill="#B6B6B6" id="path4169"/>
   </g>
   <g transform="matrix(12.997776,0,0,-12.997776,306.99861,703.01559) " id="g4171">
    <path d="m-14.447614,38.39348c0.02,0 0.034,0.014 0.04,0.036c0,0 2.277,7.479 2.277,7.486c0,0.02 -0.012,0.042 -0.031,0.044c0,0 -2.805,0 -2.807,0c-0.014,0 -0.023,-0.011 -0.026,-0.026c0,-0.001 -0.581,-1.945 -0.581,-1.946c-0.004,-0.016 -0.012,-0.026 -0.026,-0.026s-0.026,0.014 -0.028,0.026l-0.608,1.947c-0.002,0.013 -0.012,0.025 -0.026,0.025c-0.001,0 -3.1,0.001 -3.1,0.001c-0.009,-0.002 -0.017,-0.01 -0.02,-0.018l-0.545,-1.954c-0.003,-0.017 -0.012,-0.027 -0.027,-0.027c-0.013,0 -0.024,0.01 -0.026,0.023l-0.578,1.952c-0.001,0.012 -0.011,0.022 -0.023,0.024l-2.992,0c-0.024,0 -0.044,-0.02 -0.044,-0.045c0,-0.004 0.001,-0.012 0.001,-0.012s2.31,-7.471 2.311,-7.474c0.006,-0.022 0.02,-0.036 0.04,-0.036c0.003,0 2.485,-0.001 2.485,-0.001c0.015,0.002 0.03,0.019 0.034,0.037c0.001,0 0.865,2.781 0.865,2.781c0.005,0.017 0.012,0.027 0.026,0.027c0.015,0 0.023,-0.012 0.027,-0.026l0.843,-2.794c0.005,-0.014 0.018,-0.024 0.034,-0.024c0.002,0 2.505,0 2.505,0" fill="#B6B6B6" id="path4173"/>
   </g>
   <g transform="matrix(12.997776,0,0,-12.997776,278.90126,499.03369) " id="g4175">
    <path d="m-14.447614,38.39348c-0.451,0 -1.083,-0.232 -1.446,-0.501c-0.363,-0.269 -0.888,-0.882 -0.888,-1.727c0,-0.845 0.513,-1.502 0.513,-1.502c0.263,-0.326 0.925,-1.01 0.925,-1.01c0.015,-0.016 0.024,-0.037 0.024,-0.06c0,-0.051 -0.041,-0.093 -0.092,-0.093c-0.008,0 -6.046,0 -6.046,0l0,-2.674l7.267,0c0.988,0 1.539,0.538 1.69,0.689c0.15,0.15 0.65,0.713 0.65,1.646c0,0.932 -0.425,1.414 -0.607,1.633c-0.162,0.196 -0.808,0.876 -0.943,1.017c-0.016,0.014 -0.026,0.034 -0.026,0.056c0,0.033 0.019,0.063 0.048,0.073l3.5,0l0,-5.114l2.691,0l0,5.101l3.267,0l0,2.466l-10.527,0z" fill="#B6B6B6" id="path4177"/>
   </g>
   <g transform="matrix(12.997776,0,0,-12.997776,583.96822,539.30215) " id="g4179">
    <path d="m-14.447614,38.39348l-1.651,-0.001c0,0 -0.044,0.013 -0.044,0.063l-0.001,0.833c0,0.05 0.044,0.063 0.044,0.063l1.514,0c0.176,0 0.532,-0.088 0.532,-0.495c0,-0.407 -0.394,-0.463 -0.394,-0.463m2.178,-1.79c-0.45,0.002 -0.482,0.181 -0.482,0.207c0,0.046 0.056,0.075 0.056,0.075c0.169,0.081 0.514,0.35 0.514,0.35c0.732,0.57 0.82,1.352 0.82,1.771c0,0.42 -0.063,1.163 -0.814,1.814c-0.751,0.651 -1.702,0.671 -1.702,0.671l-5.287,0c0,0 0,-7.522 0,-7.524c0,-0.024 0.022,-0.043 0.046,-0.043c0.005,0 2.943,0 2.943,0l0,2.109c0,0.038 0.057,0 0.057,0l1.533,-1.539c0.545,-0.551 1.446,-0.57 1.446,-0.57l4.525,0l0,2.679l-3.655,0l0,0z" fill="#B6B6B6" id="path4181"/>
   </g>
   <g transform="matrix(12.997776,0,0,-12.997776,466.86346,556.40203) " id="g4183">
    <path d="m-14.447614,38.39348l-1.107,0c-0.041,0 -0.067,0.044 -0.067,0.086c0,0.016 0.589,1.914 0.589,1.914c0.021,0.071 0.027,0.073 0.031,0.073l0.001,0c0.004,0 0.01,-0.002 0.031,-0.073c0,0 0.589,-1.898 0.589,-1.914c0,-0.042 -0.027,-0.086 -0.067,-0.086m1.49,4.347c-0.011,0.038 -0.044,0.065 -0.085,0.067l-4.065,0c-0.04,-0.002 -0.074,-0.029 -0.085,-0.066c0,0 -2.245,-7.42 -2.245,-7.434c0,-0.037 0.03,-0.067 0.067,-0.067l2.687,0c0.022,0.007 0.038,0.028 0.043,0.051l0.313,1.001c0.01,0.024 0.033,0.041 0.061,0.042l2.478,0c0.028,-0.002 0.051,-0.019 0.062,-0.043l0.32,-1c0.005,-0.023 0.021,-0.044 0.042,-0.052c0,0 2.642,0.001 2.644,0.001c0.037,0 0.067,0.028 0.067,0.066c0,0.012 -2.304,7.434 -2.304,7.434" fill="#B6B6B6" id="path4185"/>
   </g>
  </g>
 </g>
</svg>