<svg width="1013.9999999999999" height="980.0000000000001" xmlns="http://www.w3.org/2000/svg">

 <g>
  <title>background</title>
  <rect fill="none" id="canvas_background" height="982" width="1016" y="-1" x="-1"/>
 </g>
 <g>
  <title>Layer 1</title>
  <g id="svg_1" transform="translate(0,1024) scale(0.10000000149011612,-0.10000000149011612) ">
   <path id="svg_2" d="m10100.995,10223.184075c-243.994,-100 -601.992,-335 -900.996,-591.006c-162.002,-137.998 -522.002,-500.996 -674.004,-678.994c-241.992,-282.997 -455.996,-569.003 -676.992,-902.001c-255,-387.002 -546.006,-895.996 -705,-1235c-192.002,-407.998 -423.008,-847.998 -536.006,-1017.002l-55.996,-82.998l-66.006,127.998c-246.992,485 -585.996,767.998 -1050.996,875c-115,26.006 -397.998,37.002 -540.996,20c-295,-35 -621.006,-135 -849.004,-262.002c-342.998,-190 -690,-462.998 -1025,-805c-263.999,-270 -485,-542.998 -685,-848.994c-176.001,-268.008 -241.001,-384.004 -460,-814.004l-150,-295.996l-189.999,-47.002c-525,-131.006 -943.999,-187.998 -1386.001,-187.998c-81.997,0 -148.999,-2.002 -148.999,-5c0,-25 56.001,-103.008 118.999,-166.006c123.003,-122.002 207.002,-172.002 438.003,-262.998c163.999,-64.004 215,-79.004 370.996,-110c207.002,-42.998 303.003,-49.004 632.002,-42.998c471.001,7.998 893.999,57.998 1600,187.002c790,143.994 1330,206.992 1975,230c537.002,18.994 1089.003,-19.004 1410,-98.008c130,-30.996 232.998,-33.994 282.998,-8.994c39.004,20.996 32.998,12.002 277.998,432.998c357.002,615 639.004,1140 660,1225.996c4.004,21.006 -0.996,34.004 -27.998,63.008c-37.998,41.992 -65.996,47.998 -392.998,90c-799.004,101.992 -1427.998,90.996 -2045,-36.006c-575,-118.994 -1122.002,-317.001 -1897.002,-687.998c-135.996,-65 -278.994,-132.002 -317.998,-149.004c-107.998,-45.996 -603.999,-206.992 -612.002,-197.998c-15.996,16.006 72.002,76.006 418.003,282.998c738.002,441.006 1136,656.006 1563.999,846.006c327.998,145 557.998,220.996 852.998,280.996c396.006,82.002 732.998,119.004 1087.998,120l241.006,1.006l100.996,200.996c216.006,425.996 427.002,721.006 606.006,849.004c33.994,22.998 157.998,95 275.996,160c280,152.002 447.998,263.994 530,350.996c240,257.002 347.002,517.002 435,1050c52.998,324.004 114.004,537.002 215.996,754.003c81.006,170 178.008,302.998 382.002,525c392.002,425 700,702.998 936.006,843.994c45.996,28.008 80,51.006 75,51.006s-47.003,-16.006 -93.009,-35z" fill="#B6B6B6"/>
   <path id="svg_3" d="m3050,2068.185075c0,-115 -2.998,-210 -7.002,-210c-2.998,0 -30,11.992 -58.994,25.996c-43.003,20.996 -69.004,25.996 -127.002,27.002c-66.001,0 -80,-4.004 -146.001,-37.998c-126.001,-67.002 -213.003,-189.004 -245,-347.002c-40,-194.004 2.998,-432.002 96.997,-542.998c95,-114.004 313.003,-124.004 434.004,-20c22.998,18.994 42.998,35 45.996,35s12.002,-18.008 21.006,-40l15.996,-40l135,0l135,0l0,680l0,680l-150,0l-150,0l0,-210zm-35,-445l35,-26.006l0,-193.994l0,-194.004l-27.002,-19.004c-100,-70 -156.997,-77.998 -200.996,-26.992c-40,45 -45,73.994 -41.001,256.992c3.999,172.002 16.001,209.004 77.998,240c28.999,14.004 38.003,15 77.002,3.008c25,-7.002 59.995,-25 78.999,-40z" fill="#B6B6B6"/>
   <path id="svg_4" d="m1175,2244.181075c-47.998,-22.002 -77.002,-60 -82.002,-109.004c-10,-88.994 49.004,-146.992 149.004,-146.992c50,0 61.997,3.994 92.998,30.996c97.002,85 50,220.996 -81.001,235c-31.001,2.998 -60,-0.996 -78.999,-10z" fill="#B6B6B6"/>
   <path id="svg_5" d="m5040,2239.181075c-52.998,-27.998 -75,-64.004 -75,-122.002c0,-45.996 2.998,-53.994 42.002,-90c38.994,-35.996 47.002,-38.994 98.994,-38.994c68.008,0 115,25 138.008,73.994c21.992,47.002 20,87.002 -7.002,127.002c-42.999,65 -129.004,87.002 -197.002,50z" fill="#B6B6B6"/>
   <path id="svg_6" d="m1070,1363.185075l0,-475l165,0l165,0l0,475l0,475l-165,0l-165,0l0,-475z" fill="#B6B6B6"/>
   <path id="svg_7" d="m1787.998,1828.185075c-135.996,-23.008 -205,-75 -247.998,-186.006c-21.001,-52.002 -23.999,-80 -27.998,-248.994c-3.003,-148.008 -1.001,-203.008 10.996,-248.008c31.001,-116.992 89.004,-181.992 206.001,-228.994c52.002,-21.006 68.999,-22.998 251.001,-21.006c112.998,1.006 223.999,7.002 265,15l70,13.008l2.998,98.994l3.003,97.998l-28.003,-5c-15,-3.994 -77.998,-11.992 -138.999,-17.998c-193.999,-20.996 -311.001,14.004 -333.999,101.006c-18.999,70 -17.998,70 201.001,73.994c235,2.998 257.998,10 291.001,82.998c16.997,36.006 22.998,74.004 25.996,149.004c4.004,94.004 2.002,105.996 -22.998,162.998c-42.998,95 -95,130 -232.998,157.002c-79.004,15 -217.002,17.002 -294.004,4.004zm247.002,-220c23.999,-23.008 26.001,-30 22.998,-105l-2.998,-80l-112.002,-3.008l-112.998,-2.998l0,77.002c0,74.004 1.001,77.002 35,110.996c33.999,34.004 37.998,35 90,31.006c40,-2.998 62.002,-11.006 80,-27.998z" fill="#B6B6B6"/>
   <path id="svg_8" d="m4947.001,1831.183075c-4.004,-2.998 -7.002,-217.002 -7.002,-475l0,-467.998l170,0l170,0l0,475l0,475l-162.998,0c-90,0 -167.001,-3.008 -170,-7.002z" fill="#B6B6B6"/>
   <path id="svg_9" d="m6625.995,1822.179075c-80,-17.998 -131.992,-42.002 -161.992,-75.996c-62.002,-67.998 -93.008,-192.998 -94.004,-377.998c0,-206.006 29.004,-309.004 107.002,-381.006c87.002,-80 190,-105 402.002,-95.996c75,2.998 172.998,10.996 218.994,17.998l82.002,12.002l0,100l0,100l-27.998,-6.006c-289.004,-57.998 -479.004,-10 -470,117.002l2.998,41.006l140,-3.008c149.004,-2.998 280.996,9.004 314.004,30c25,15 47.998,68.008 60.996,137.002c35,189.004 -32.002,322.998 -185,371.006c-92.998,30 -289.004,36.992 -389.004,13.994zm255,-198.994c45,-24.004 60,-86.006 43.008,-174.004l-7.002,-32.002l-111.006,2.998l-110.996,3.008l-2.998,53.994c-4.004,72.998 2.998,99.004 40,132.998c23.994,22.002 40,28.008 75,28.008c23.994,0 57.002,-7.002 73.994,-15z" fill="#B6B6B6"/>
   <path id="svg_10" d="m531.001,1802.179075c-48.999,-17.998 -121.001,-62.002 -121.001,-75c0,-22.002 -21.001,-5 -40,31.006l-20,40l-125,0l-125,0l0,-696.006c0,-658.994 1.001,-695.996 17.002,-688.994c27.998,10.996 266.997,95 270,95c1.997,0 2.998,90 2.998,200s2.002,200 5,200c2.002,0 23.999,-10 47.002,-22.002c30.996,-16.006 65,-24.004 120,-26.006c65.996,-3.994 85,0 132.998,22.002c112.998,52.002 215,179.004 250,311.006c18.999,75 20,256.992 1.001,345.996c-27.002,125 -92.002,215.996 -186.001,257.998c-55,25 -163.999,27.002 -228.999,5zm66.997,-232.002c46.001,-42.998 56.001,-95 48.003,-250.996c-7.002,-155 -21.001,-195 -77.002,-225c-35,-19.004 -37.998,-19.004 -81.997,-2.002c-25,9.004 -57.002,26.006 -72.002,37.002l-25,20.996l2.002,190l2.998,191.006l62.998,32.998c78.003,40.996 101.001,42.002 140,5.996z" fill="#B6B6B6"/>
   <path id="svg_11" d="m4365.996,1793.185075c-31.992,-13.008 -70.996,-35 -85,-49.004c-15,-14.004 -30,-25.996 -33.994,-25.996c-4.004,0 -14.004,17.998 -22.998,40l-16.006,40l-128.994,0l-129.004,0l0,-695c0,-382.002 2.002,-695 4.004,-695c3.994,0 158.994,55 243.994,85.996l42.002,15.996l0,199.004c0,109.004 2.002,199.004 4.004,199.004c1.992,0 27.998,-11.006 57.998,-25c78.994,-37.002 172.002,-35 255.996,5c115,53.994 209.004,176.992 242.998,315c7.002,27.998 12.002,101.992 12.002,165c0,176.992 -37.998,295.996 -120,375.996c-78.995,77.002 -212.002,97.002 -327.002,49.004zm76.005,-215c47.002,-36.006 57.999,-77.002 57.999,-208.008c0,-156.992 -12.002,-218.994 -50,-256.992c-40.996,-40 -90,-40 -155.996,0.996l-49.004,30l-2.998,189.004l-2.002,190l35.996,23.994c40,25 99.004,49.004 125,50c9.004,1.006 28.007,-7.998 41.005,-18.994z" fill="#B6B6B6"/>
   <path id="svg_12" d="m5852.001,1799.181075c-29.004,-10 -70,-32.002 -92.002,-50c-20.996,-17.002 -40.996,-30.996 -42.998,-30.996c-2.998,0 -12.002,17.998 -21.006,40l-15.996,40l-130,0l-130,0l0,-696.006c0,-552.998 2.998,-695 12.998,-692.002c6.006,3.008 74.004,26.006 150,53.008l137.003,47.998l0,197.998c0,110 2.002,199.004 4.004,199.004c2.998,0 21.992,-10 41.992,-22.002c27.002,-16.006 58.008,-22.998 119.004,-26.006c80,-3.994 85,-2.998 154.003,33.008c162.998,85.996 250,250 250.996,472.998c0,210.996 -72.998,372.002 -195,427.998c-62.998,30 -165.996,32.002 -242.998,5zm72.999,-232.998c45,-42.998 55,-95 47.998,-252.998c-5.996,-141.006 -23.994,-195 -72.998,-220c-39.004,-20 -77.998,-13.008 -137.998,23.994l-42.002,26.006l2.002,195l2.998,193.994l62.998,32.998c35,18.008 72.002,33.008 82.998,33.008c11.005,0 35,-15 54.004,-32.002z" fill="#B6B6B6"/>
   <path id="svg_13" d="m7827.001,1794.181075c-54.004,-20 -102.998,-60.996 -140,-117.002c-46.006,-70 -57.002,-65 -57.002,31.006l0,80l-140,0l-140,0l0,-450l0,-450l150,0l150,0l0,242.998c0,265.996 4.004,287.998 62.998,330.996c25,17.998 42.998,21.006 142.998,21.006l114.004,0l0,162.998l0,162.002l-52.002,0c-28.994,-1.006 -70,-7.002 -90.996,-14.004z" fill="#B6B6B6"/>
  </g>
 </g>
</svg>