<svg width="595.281" height="180" xmlns="http://www.w3.org/2000/svg">
 <g>
  <title>background</title>
  <rect x="-1" y="-1" width="597.281" height="182" id="canvas_background" fill="none"/>
 </g>

 <g>
  <title>Layer 1</title>
  <g id="svg_1">
   <polygon fill="#B6B6B6" points="141.2030029296875,0.04999375343322754 94.1969985961914,0.04999375343322754 0,94.24700915813446 0,132.33499133586884 94.1969985961914,132.33499133586884 94.1969985961914,179.34100329875946 141.2030029296875,179.34100329875946 141.2030029296875,94.24700915813446 47.005001068115234,94.24700915813446 " id="svg_2"/>
   <polygon fill="#B6B6B6" points="161.45399475097656,47.054996371269226 208.45899963378906,0.04999375343322754 161.45399475097656,0.04999375343322754 " id="svg_3"/>
   <polygon fill="#B6B6B6" points="255.46499633789062,47.054996371269226 255.46499633789062,0.04999375343322754 208.45899963378906,0.04999375343322754 208.45899963378906,47.054996371269226 161.45399475097656,94.24700915813446 161.45399475097656,141.25299060344696 208.45899963378906,141.25299060344696 208.45899963378906,94.24700915813446 " id="svg_4"/>
   <polygon fill="#B6B6B6" points="255.46499633789062,94.24700915813446 208.45899963378906,141.25299060344696 255.46499633789062,141.25299060344696 " id="svg_5"/>
  </g>
  <rect x="300.984" y="94.247012" fill="#B6B6B6" width="3.717" height="46.82" id="svg_6"/>
  <g id="svg_7">
   <path fill="#B6B6B6" d="m335.169,111.341012c-1.486,-1.486 -2.973,-1.858 -4.086,-1.858c-0.744,0 -1.672,0.186 -2.416,0.558c-0.557,0.371 -0.93,1.114 -0.93,1.857s0.373,1.301 0.93,1.673c0.557,0.371 1.115,0.743 2.416,1.3l1.486,0.743c1.113,0.558 2.229,1.115 3.344,2.416c0.93,1.114 1.301,2.229 1.301,3.901c0,2.601 -1.115,4.831 -2.416,6.317c-2.043,2.043 -4.645,2.415 -7.061,2.415c-1.857,0 -3.344,-0.186 -5.016,-1.115c-1.301,-0.743 -2.416,-1.672 -3.344,-2.601l3.158,-4.088c0.557,0.743 1.301,1.486 2.043,2.044c0.744,0.558 1.859,0.743 2.973,0.743c0.93,0 2.045,-0.186 2.787,-0.743c0.744,-0.558 1.115,-1.301 1.115,-2.229s-0.371,-1.486 -0.744,-1.672c-0.186,-0.187 -0.742,-0.558 -2.043,-1.115l-1.486,-0.558c-0.371,-0.186 -2.229,-0.929 -3.529,-2.229c-1.301,-1.3 -1.672,-2.601 -1.672,-4.272c0,-2.602 1.113,-4.459 2.229,-5.574c2.043,-2.044 4.645,-2.415 6.689,-2.415c2.043,0 4.645,0.371 7.244,2.415l-2.972,4.087z" id="svg_8"/>
   <path fill="#B6B6B6" d="m349.291,105.395012l-2.973,24.71l-5.76,0l2.973,-24.71l5.76,0z" id="svg_9"/>
   <path fill="#B6B6B6" d="m360.625,105.395012l-2.416,19.88l7.803,0l-0.557,4.83l-13.377,0l2.973,-24.71l5.574,0z" id="svg_10"/>
   <path fill="#B6B6B6" d="m377.345,105.395012l-2.973,24.71l-5.76,0l2.973,-24.71l5.76,0z" id="svg_11"/>
   <path fill="#B6B6B6" d="m398.339,129.362012c-0.742,0.372 -2.787,1.301 -5.945,1.301c-4.645,0 -7.432,-2.044 -8.732,-3.345c-1.672,-1.672 -3.344,-4.273 -3.344,-8.546c0,-4.273 1.672,-7.804 3.902,-10.219c2.043,-2.044 5.387,-3.901 9.846,-3.901c3.902,0 6.133,1.3 7.061,1.857l-0.742,6.131c-0.93,-0.929 -2.973,-2.415 -6.131,-2.415c-2.416,0 -4.273,0.558 -5.947,2.415c-1.486,1.673 -2.229,3.902 -2.229,5.76c0,2.044 0.742,3.901 1.857,5.017c1.115,1.114 2.973,1.857 5.203,1.857c2.414,0 4.459,-1.114 5.76,-2.229l-0.559,6.317z" id="svg_12"/>
   <path fill="#B6B6B6" d="m426.208,107.996012c2.045,2.044 3.531,5.202 3.531,8.732s-1.301,7.432 -3.902,10.033c-3.158,3.158 -7.061,3.901 -10.219,3.901s-6.502,-0.558 -9.475,-3.53c-1.674,-1.672 -3.531,-4.645 -3.531,-8.732c0,-4.273 1.672,-7.803 4.088,-10.032c3.158,-2.973 7.061,-3.716 10.219,-3.716c4.831,0.186 7.618,1.858 9.289,3.344zm-15.419,4.459c-1.486,1.486 -2.23,3.53 -2.23,5.76s0.93,4.087 2.045,5.202c1.672,1.672 3.715,2.044 5.387,2.044s3.717,-0.186 5.574,-2.044c1.301,-1.301 2.23,-3.53 2.23,-6.131c0,-1.673 -0.373,-3.53 -2.045,-5.202c-1.672,-1.673 -3.529,-1.858 -5.201,-1.858c-2.231,-0.186 -4.274,0.557 -5.76,2.229z" id="svg_13"/>
   <path fill="#B6B6B6" d="m432.339,130.105012l3.158,-24.71l5.018,0l11.334,16.163l2.043,-16.163l5.76,0l-3.158,24.71l-5.018,0l-11.52,-16.164l-2.043,16.164l-5.574,0z" id="svg_14"/>
   <path fill="#B6B6B6" d="m477.117,105.395012l4.273,15.792l8.174,-15.792l6.316,0l-13.377,24.71l-3.9,0l-7.432,-24.71l5.946,0z" id="svg_15"/>
   <path fill="#B6B6B6" d="m509.63,125.461012l-9.291,0l-2.414,4.645l-6.131,0l13.004,-24.71l5.203,0l6.689,24.71l-5.76,0l-1.3,-4.645zm-0.929,-4.459l-2.043,-8.732l-4.088,8.732l6.131,0z" id="svg_16"/>
   <path fill="#B6B6B6" d="m528.208,105.395012l-2.414,19.88l7.803,0l-0.557,4.83l-13.377,0l2.973,-24.71l5.572,0z" id="svg_17"/>
   <path fill="#B6B6B6" d="m544.931,105.395012l-2.416,19.88l7.803,0l-0.557,4.83l-13.377,0l2.973,-24.71l5.574,0z" id="svg_18"/>
   <path fill="#B6B6B6" d="m568.898,110.225012l-8.176,0l-0.557,4.831l7.803,0l-0.557,4.83l-7.803,0l-0.744,5.574l8.176,0l-0.373,4.645l-13.748,0l2.973,-24.71l13.748,0l-0.742,4.83z" id="svg_19"/>
   <path fill="#B6B6B6" d="m578.931,118.586012l-7.246,-13.19l6.502,0l4.088,7.617l5.945,-7.617l7.061,0l-10.59,13.19l-1.301,11.52l-5.76,0l1.301,-11.52z" id="svg_20"/>
  </g>
 </g>
</svg>