<svg xmlns="http://www.w3.org/2000/svg" aria-labelledby="simpleicons-tesla-icon" role="img" width="24" height="24"><rect id="backgroundrect" width="100%" height="100%" x="0" y="0" fill="none" stroke="none"/><title id="simpleicons-tesla-icon">Tesla icon</title><g class="currentLayer" style=""><title>Layer 1</title><path d="M12 5.362l2.475-3.026s4.245.09 8.471 2.054c-1.082 1.636-3.231 2.438-3.231 2.438-.146-1.439-1.154-1.79-4.354-1.79L12 24 8.619 5.034c-3.18 0-4.188.354-4.335 1.792 0 0-2.146-.795-3.229-2.43C5.28 2.431 9.525 2.34 9.525 2.34L12 5.362l-.004.002H12v-.002zm0-3.899c3.415-.03 7.326.528 11.328 2.28.535-.968.672-1.395.672-1.395C19.625.612 15.528.015 12 0 8.472.015 4.375.61 0 2.349c0 0 .195.525.672 1.396C4.674 1.989 8.585 1.435 12 1.46v.003z" id="svg_1" class="" fill="#b6b6b6" fill-opacity="1"/></g></svg>