<svg width="312.083" height="217.46" xmlns="http://www.w3.org/2000/svg">

 <g>
  <title>background</title>
  <rect fill="none" id="canvas_background" height="219.46" width="314.083" y="-1" x="-1"/>
 </g>
 <g>
  <title>Layer 1</title>
  <path d="m299.042,45.489c-3.59,-3.208 -7.439,0.641 -6.412,4.361c1.023,3.721 -1.027,5.774 -1.027,5.774c5.899,-0.256 11.028,-6.799 7.439,-10.135" fill="#B6B6B6" id="path1030"/>
  <path d="m249.409,85.927l-0.477,-0.82c-6.014,2.393 -9.747,2.625 -8.514,-1.98c2.99,-6.525 5.85,-13.055 8.847,-19.712c4.234,0.057 3.556,3.757 3.124,7.598c0.26,0.012 0.506,0.157 0.757,0.301l6.285,-14.101l-0.888,-0.306c-1.083,4.081 -6.27,5.312 -7.398,1.799c2.297,-5.357 4.592,-10.714 7.021,-16.197c3.306,0.681 6.328,2.016 6.357,9.873c0.387,0.018 0.898,0.041 1.281,0.058l1.767,-7.91l-17.819,-9.06c0.08,1.07 -0.699,4.098 -1.389,5.133c-5.921,14.648 -10.202,24.179 -16.308,37.22c-1.397,2.468 -2.485,3.885 -3.653,4.099c1.125,0.716 17.672,9.583 17.672,9.583l3.335,-5.578" fill="#B6B6B6" id="path1032"/>
  <path d="m285.247,52.656c-3.796,-2.418 -7.593,-4.971 -11.393,-7.388c-0.033,1.649 -0.193,3.296 -0.869,4.931c-6.558,13.069 -13.24,25.996 -19.924,39.059c-1.715,2.303 -2.867,2.142 -4.15,2.252c6.084,3.564 12.168,7.129 18.25,10.693l5.898,-6.067l-1.139,-0.711c-3.514,2.266 -8.782,2.844 -10.391,-0.077c6.949,-13.472 13.775,-27.083 20.725,-40.554c0.536,-1.089 1.577,-1.894 2.993,-2.138" fill="#B6B6B6" id="path1034"/>
  <path d="m236.959,38.516c0.947,-1.982 2.016,-3.695 3.576,-4.593c-3.813,-1.562 -7.625,-3.123 -11.432,-4.818c-0.045,1.871 -0.088,3.74 -0.391,5.604c-4.4,12.46 -8.681,25.058 -12.953,37.52c-0.828,2.387 -2.024,4.095 -3.463,5.265c3.814,1.428 7.756,2.859 11.576,4.152c-0.467,-1.882 -0.291,-3.883 0.395,-5.739c4.144,-12.465 8.421,-24.928 12.692,-37.391" fill="#B6B6B6" id="path1036"/>
  <path d="m297.618,65.414c-15.713,0.622 -10.916,23.546 -11.029,25.774c-0.053,0.992 2.451,16.918 -5.369,16.485c-7.688,-0.429 -5.934,-11.172 -5.934,-11.172c0.152,-0.368 -0.492,-0.755 -0.926,-0.146c-1.58,2.318 -3.723,5.243 -5.01,6.948c-0.128,2.476 2.455,-1.182 4.774,2.839c4.652,7.673 12.901,4.892 16.655,1.633c7.363,-6.149 5.879,-15.979 5.793,-24.659c-0.045,-4.214 -1.918,-14.302 4.221,-14.775c6.533,-0.466 6.711,8.96 6.053,11.423c-0.02,0.372 0.885,0.89 1.17,0.523c1.309,-2.2 2.885,-4.394 4.709,-6.335c0.141,-0.12 -0.369,-0.504 -0.482,-0.879c0,0 0.221,0.873 -1.99,-0.047c-2.081,-0.916 -1.975,-8.105 -12.635,-7.612" fill="#B6B6B6" id="path1038"/>
  <path d="m196.847,40.613l6.411,33.564l5.518,1.333l11.927,-45.285c0.517,-1.598 1.281,-2.663 2.31,-3.463c-2.182,-0.533 -4.744,-1.332 -6.925,-1.864c0.642,1.332 0.642,2.929 0.384,4.528c-2.309,8.259 -4.619,17.582 -6.925,25.706l-7.569,-32.364c-2.434,-0.534 -4.873,-0.933 -7.184,-1.466c0.515,1.332 0.9,2.931 0.771,4.794c-2.439,13.187 -5.002,26.506 -7.439,39.826c-0.385,1.997 -1.023,3.596 -2.053,5.061c2.182,0.266 4.232,0.666 6.412,1.065c-0.641,-1.865 -1.152,-3.995 -0.894,-5.195c1.794,-8.259 3.589,-18.115 5.256,-26.24" fill="#B6B6B6" id="path1040"/>
  <path d="m146.122,35.538c-0.111,10.412 2.568,31.585 -9.74,30.804c-0.125,-19.782 -0.117,-39.554 -0.25,-59.203c10.685,-2.41 9.964,16.239 9.99,28.399zm-22.094,-31.97c0.836,1.264 1.267,2.632 1.543,4.255c0.163,19.25 0.45,38.643 0.604,58.025c-0.158,2.127 -0.929,3.539 -2.199,4.513c5.074,-0.291 12.167,-0.832 14.975,-1.023c22.334,-1.678 24.792,-65.086 -0.048,-65.465c-3.581,-0.133 -10.085,-0.35 -14.875,-0.305" fill="#B6B6B6" id="path1042"/>
  <path d="m78.233,28.886c1.152,1.055 1.662,2.239 2.168,3.818c3.296,13.551 6.587,27.103 9.879,40.653c0.122,1.709 -0.137,3.155 -0.526,4.337c3.852,-1.171 7.703,-2.343 11.553,-3.382c-0.766,-1.056 -1.402,-2.24 -1.911,-3.688c-1.39,-6.577 -2.91,-13.156 -4.298,-19.865l1.16,-2.757l10.695,25.012c3.852,-0.776 7.705,-1.684 11.425,-2.461c-1.281,-1.187 -2.3,-2.768 -3.065,-4.348c-2.547,-6.186 -5.092,-12.241 -7.641,-18.297c-0.25,-0.79 -0.5,-3.42 -3.584,-2.246c-4.365,1.696 -6.794,-0.415 -6.276,-2.519c1.17,-4.333 3.367,-9.849 5.05,-14.707c0.519,-1.971 1.679,-3.939 3.224,-5.511c-2.439,0.519 -4.877,1.037 -7.444,1.554c1.149,1.188 1.531,2.371 0.886,3.948c-1.813,5.253 -3.884,11.162 -5.823,16.282l-3.802,-15.129c-0.252,-1.052 -0.249,-2.235 0.269,-3.286c-3.852,0.776 -8.088,1.814 -11.939,2.592" fill="#B6B6B6" id="path1044"/>
  <path d="m65.878,35.851c4.93,-1.644 6.826,2.15 8.469,3.667c-0.884,-2.655 -1.138,-5.311 -2.022,-8.092c-3.414,3.793 -4.676,1.391 -8.597,2.655c-10.617,3.288 -8.975,18.967 -5.687,27.692c5.057,14.163 14.159,23.014 23.007,19.221c6.7,-2.909 6.572,-13.783 -0.886,-16.691c1.898,3.161 5.31,12.772 0.128,15.047c-5.816,2.529 -9.355,-12.266 -12.642,-21.876c-5.562,-17.071 -4.55,-20.739 -1.77,-21.623" fill="#B6B6B6" id="path1046"/>
  <path d="m169.42,35.386l2.238,17.566c0,0 -7.381,-0.604 -7.705,-0.541l5.467,-17.025zm-15.913,33.282c2.985,0.133 5.719,0.396 8.079,0.792c-1.367,-1.981 -1.487,-3.566 -1.367,-5.15c0.872,-2.773 1.744,-5.548 2.612,-8.321l9.199,0.529l0.375,8.452c-0.621,2.113 -1.617,3.698 -3.109,4.755c5.846,0.396 10.818,0.66 15.793,1.453c-1.369,-1.586 -2.113,-3.302 -2.365,-5.548c-1.492,-15.319 -3.105,-30.639 -4.598,-45.958c-3.355,-0.264 -6.592,-0.527 -9.822,-0.792c0.746,2.113 1.367,4.357 0.495,6.735c-3.977,12.81 -7.954,25.622 -12.06,38.433c-0.622,1.847 -1.616,3.3 -3.232,4.62" fill="#B6B6B6" id="path1048"/>
  <path d="m48.901,76.51c0,0 -6.744,3.603 -6.958,3.889l-4.174,-17.065l11.132,13.176zm-16.729,-20.855c3.164,12.75 6.331,25.499 9.62,38.115c0.309,1.917 0.103,3.848 -0.617,5.664c2.535,-1.223 4.936,-2.571 7.469,-3.794c-2.204,-0.839 -3.137,-2.098 -3.815,-3.491c-0.717,-2.805 -1.429,-5.48 -2.146,-8.286l8.343,-4.587l4.798,6.673c0.569,2.038 0.493,3.965 -0.235,5.524c4.809,-2.439 9.616,-5.006 14.426,-7.446c-1.937,-0.46 -3.508,-1.574 -4.833,-3.207c-9.428,-11.811 -18.722,-23.497 -28.017,-35.183c-3.038,1.622 -5.944,3.239 -8.853,4.856c1.707,1.369 3.287,2.867 3.86,5.162" fill="#B6B6B6" id="path1050"/>
  <path d="m3.163,54.885c8.494,13.203 16.989,26.533 25.485,39.861c5.818,16.533 -12.123,16.242 -14.47,7.898c-0.692,-2.49 -2.7,-7.456 3.389,-9.621c-0.634,-5.126 -5.284,-5.508 -8.623,-3.666c-11.368,6.565 2.524,29.79 19.583,20.194c6.429,-3.554 10.776,-14.957 7.368,-20.639l-23.847,-39.651c-0.672,-1.739 -0.842,-3.49 -0.881,-4.995c-3.947,2.61 -7.769,5.093 -11.717,7.578c1.654,0.961 3.18,1.8 3.713,3.041" fill="#B6B6B6" id="path1052"/>
  <path d="m174.147,81.163l-1.517,12.773l3.247,0.433l1.514,-12.881l-3.244,-0.325" fill="#B6B6B6" id="path1054"/>
  <path d="m164.515,93.395l0.756,-10.608l3.68,0.216l0.217,-2.273l-10.499,-0.758l-0.107,2.382l3.68,0.217l-0.65,10.608l2.923,0.216" fill="#B6B6B6" id="path1056"/>
  <path d="m139.191,83.761c0.975,-0.108 1.839,0.215 2.383,0.757c0.432,0.542 0.755,1.516 0.973,2.707c0.107,1.3 -0.107,2.382 -0.541,2.923c-0.325,0.65 -1.082,0.974 -2.057,1.083l-1.731,0.217l-0.868,-7.471l1.841,-0.216zm0.975,10.175c2.054,-0.216 3.68,-0.867 4.544,-2.057c0.976,-1.19 1.3,-2.815 1.083,-4.98c-0.215,-2.057 -0.866,-3.572 -1.947,-4.654c-1.191,-0.974 -2.706,-1.408 -4.546,-1.191l-5.52,0.542l1.298,12.881l5.088,-0.541" fill="#B6B6B6" id="path1058"/>
  <path d="m122.526,93.287l-2.057,-9.959l-3.247,0.649l2.705,12.774l10.281,-2.057l-0.651,-2.707l-7.031,1.3" fill="#B6B6B6" id="path1060"/>
  <path d="m212.02,92.42l0.758,-2.598l-9.412,-2.707l-3.571,12.449l9.632,2.815l0.758,-2.598l-6.496,-1.84l0.759,-2.706l5.737,1.624l0.646,-2.49l-5.734,-1.624l0.65,-2.165l6.273,1.84" fill="#B6B6B6" id="path1062"/>
  <path d="m109.216,95.994c-0.327,0.757 -0.976,1.407 -1.839,1.623c-0.977,0.434 -1.84,0.325 -2.599,-0.108c-0.649,-0.541 -1.299,-1.408 -1.621,-2.598c-0.437,-1.298 -0.543,-2.38 -0.327,-3.247c0.217,-0.758 0.975,-1.408 1.839,-1.625c0.868,-0.325 1.84,-0.325 2.49,0.217c0.758,0.542 1.407,1.408 1.839,2.598c0.325,1.191 0.432,2.273 0.218,3.14zm-0.326,-8.444c-1.513,-0.758 -3.245,-0.758 -5.084,-0.108c-1.841,0.541 -3.139,1.732 -3.898,3.247c-0.648,1.516 -0.648,3.247 0,5.305c0.759,1.948 1.84,3.356 3.355,4.113c1.406,0.756 3.137,0.756 4.978,0.217c1.839,-0.65 3.14,-1.841 3.896,-3.356c0.759,-1.515 0.65,-3.247 0,-5.195c-0.65,-1.95 -1.731,-3.465 -3.247,-4.223" fill="#B6B6B6" id="path1064"/>
  <path d="m181.069,95.235l2.926,0.65l0.974,-4.655c0.107,-0.433 0.217,-1.191 0.322,-2.057c0.218,-0.866 0.325,-1.949 0.544,-3.14l0.432,10.283l3.244,0.65l4.438,-9.31c-0.214,0.975 -0.54,1.731 -0.648,2.49c-0.108,0.758 -0.323,1.3 -0.323,1.625l-1.19,5.628l3.03,0.65l2.489,-12.773l-4.438,-0.867l-2.812,5.628c-0.218,0.542 -0.649,1.082 -0.868,1.625c-0.217,0.542 -0.432,1.082 -0.649,1.624c0,-0.542 0,-1.082 0,-1.624c0,-0.542 0,-1.083 -0.109,-1.625l-0.431,-6.602l-4.438,-0.866l-2.493,12.666" fill="#B6B6B6" id="path1066"/>
  <path d="m155.588,102.87c0.511,-1.183 1.947,-1.291 2.458,0c0.615,1.505 -0.103,3.01 -1.331,3.225c-1.536,-0.43 -1.433,-2.688 -1.127,-3.225zm32.351,0c0.616,0 0.819,1.935 -0.613,2.258c-0.615,-0.646 0,-2.366 0.613,-2.258zm15.562,4.3c0.104,0 -0.104,2.15 -3.79,1.291c-0.305,-2.474 3.175,-2.15 3.79,-1.291zm13.822,3.441c1.022,1.289 -2.765,3.655 -6.655,3.118c-0.205,-3.118 5.118,-5.054 6.655,-3.118zm17.505,5.806c0.923,1.719 -5.017,4.299 -8.905,3.763c-0.411,-2.688 7.576,-6.345 8.905,-3.763zm-108.417,-11.289c-1.434,-0.323 -1.126,-2.258 -0.511,-2.258c0.615,-0.108 1.125,1.612 0.511,2.258zm-29.996,5.483c1.534,-1.827 6.859,0 6.654,3.118c-3.889,0.537 -7.575,-1.829 -6.654,-3.118zm-8.497,9.569c-3.992,0.536 -9.829,-2.044 -9.009,-3.763c1.226,-2.582 9.315,1.075 9.009,3.763zm26.105,-11.934c-3.684,0.753 -3.89,-1.396 -3.787,-1.396c0.614,-0.863 4.095,-1.185 3.787,1.396zm10.955,-1.935c-2.355,1.719 -4.401,2.582 -7.779,2.582c-4.71,-7.205 -14.846,-1.829 -2.97,2.148c-2.253,2.688 -5.733,2.903 -9.828,2.473c-1.638,-9.247 -19.451,-2.795 -2.252,2.795c-2.765,2.582 -6.654,3.656 -11.979,3.764c-7.167,-12.149 -24.672,-1.719 -1.637,2.473c-0.513,5.914 -8.398,6.342 -15.972,2.796c4.3,5.698 16.482,5.374 17.916,-3.442c8.088,-0.107 11.159,-3.225 14.64,-6.234c4.709,-0.432 8.804,-1.828 11.466,-5.482c3.993,0.214 7.269,-1.076 9.726,-3.655c8.19,0.967 15.665,0.644 22.317,-3.119c1.127,3.01 5.326,5.698 8.191,3.656c2.867,2.257 7.166,-0.752 8.291,-3.548c6.656,3.655 14.232,3.979 22.32,3.011c2.559,2.579 5.836,3.869 9.726,3.655c2.661,3.654 6.757,5.051 11.569,5.482c3.379,3.01 6.55,6.234 14.536,6.234c1.434,8.816 13.616,9.141 17.915,3.442c-7.473,3.546 -15.458,3.118 -15.97,-2.796c23.138,-4.087 5.63,-14.622 -1.534,-2.473c-5.428,-0.107 -9.215,-1.182 -12.082,-3.764c17.199,-5.59 -0.613,-11.933 -2.25,-2.795c-4.096,0.431 -7.577,0.216 -9.83,-2.473c11.979,-3.978 1.842,-9.353 -2.866,-2.148c-3.378,0 -5.53,-0.862 -7.884,-2.582c3.48,-6.236 -4.299,-6.451 -3.07,-0.646c-8.295,1.505 -15.359,-0.752 -21.191,-3.44c-0.615,2.688 -2.768,3.44 -4.916,3.871c1.435,-3.979 -1.432,-6.344 -3.583,-5.484c-1.535,0.539 -2.867,2.581 -1.84,5.591c-1.537,-0.107 -4.199,-1.397 -4.813,-3.978c-5.939,2.581 -13,4.945 -21.191,3.333c1.124,-5.698 -6.658,-5.484 -3.176,0.753" fill="#B6B6B6" id="path1086"/>
  <path d="m156.306,112.654c41.153,0 74.632,18.705 74.632,41.82s-33.479,41.931 -74.632,41.931c-41.055,0 -74.531,-18.815 -74.531,-41.931s33.476,-41.82 74.531,-41.82zm0,86.763c42.382,0 76.884,-20.214 76.884,-44.943c0,-24.727 -34.502,-44.831 -76.884,-44.831c-42.18,0 -76.784,20.104 -76.784,44.831c0,24.73 34.604,44.943 76.784,44.943" fill="#B6B6B6" id="path1088"/>
  <path d="m264.417,148.456c-0.922,-0.433 -1.844,-0.646 -2.765,-0.646c-0.513,-1.722 -1.436,-2.58 -2.562,-3.226c0.82,-2.259 1.639,-6.882 -1.74,-9.676c0.412,-2.367 0.615,-4.731 1.023,-7.204c9.729,-7.74 17.917,7.958 6.044,20.752zm-2.562,0.965c0.614,0 1.229,0.216 1.74,0.537c-0.715,0.216 -1.226,0.539 -1.638,0.86c0.001,-0.428 0.001,-0.965 -0.102,-1.397zm-4.913,21.289c-1.435,-0.539 -3.072,-0.968 -4.4,-0.859c5.832,-7.527 7.982,-12.473 8.598,-16.666c0.818,-1.075 2.049,-1.72 3.38,-2.041c3.273,4.083 0.612,10.533 -7.578,19.566zm-21.192,14.407c3.786,-2.688 7.882,-6.021 10.852,-9.247c3.686,0 7.164,-0.321 9.622,-2.792c1.126,4.836 -11.977,14.511 -20.474,12.039l0,0zm-18.326,10.751c0.204,0.429 12.594,-6.88 12.284,-7.204c3.79,0.432 7.576,0 11.058,-0.537c0.613,7.204 -16.994,10.429 -23.342,7.741zm-24.572,7.096c6.452,-1.398 13.104,-2.689 18.736,-5.161c2.56,0.645 5.119,0.969 7.678,0.86c-1.126,7.419 -13.513,6.128 -26.414,4.301zm26.211,-5.482c-2.355,0 -4.813,0 -7.064,-0.646c0.92,-0.644 1.229,-1.83 2.865,-1.29c0.822,0.859 2.66,1.396 4.199,1.936zm19.451,-10.537c-2.355,0.752 -5.016,0.752 -7.371,0.537c-0.104,-0.967 0.818,-1.611 2.661,-1.828c1.126,0.754 2.969,1.181 4.71,1.291l0,0zm17.096,-14.945c-2.252,2.688 -8.395,2.904 -8.19,2.043c0.411,-2.043 5.426,-3.872 8.19,-2.043zm4.504,-22.363c0.103,0.86 0.103,1.828 -0.203,2.688c-1.332,0.43 -2.251,0.43 -2.355,-0.969c-0.102,-0.966 1.534,-1.503 2.558,-1.719l0,0zm-3.785,-3.653c-0.615,2.363 -3.379,6.234 -3.891,5.373c-1.537,-2.043 2.66,-5.373 3.891,-5.373zm-1.845,-9.357c-1.024,2.688 -3.274,6.56 -3.684,5.698c-1.229,-1.935 1.742,-4.622 3.684,-5.698zm-196.768,0c1.945,1.075 4.914,3.763 3.687,5.806c-0.411,0.754 -2.766,-3.117 -3.687,-5.806zm-1.842,9.357c1.228,0 5.425,3.438 3.89,5.373c-0.614,0.861 -3.278,-3.01 -3.89,-5.373zm115.481,59.99c-5.323,0.752 -11.466,2.579 -15.256,2.902c-3.684,-0.432 -10.133,-2.15 -15.252,-2.902c-12.492,-1.612 -25.902,-4.945 -39.416,-8.816c-0.41,-2.256 -2.15,-3.87 -5.63,-2.473c-4.199,-1.719 -8.191,-3.979 -12.184,-6.773c-0.306,-1.72 -0.306,-3.223 -5.835,-3.548c-3.583,-2.901 -7.165,-5.913 -10.749,-8.815c0.206,-1.83 0.102,-4.303 -6.244,-6.021c-3.687,-5.481 -7.065,-10.858 -7.985,-16.02c5.424,0.109 3.683,-4.086 -0.309,-5.268c0.205,-1.504 0.921,-1.611 1.74,-2.043c6.656,14.3 11.467,1.613 1.23,-2.043c-1.024,-3.227 -1.23,-6.451 0.409,-7.847c6.347,15.803 11.365,3.116 1.433,-2.043c-0.614,-1.723 -0.82,-3.335 -0.717,-4.84c3.788,2.043 7.27,4.407 10.341,7.095c-5.733,31.396 14.642,47.093 24.06,51.499c-17.302,-12.794 -24.468,-30.423 -22.625,-50.745c1.229,0.108 2.354,0.216 3.583,0.216c-1.229,-0.753 -2.456,-1.614 -3.686,-2.473c-0.206,-1.397 0,-2.796 0.307,-4.194c3.379,2.367 6.756,4.303 11.262,4.732c-4.607,6.021 -5.529,15.482 -5.118,20.21c3.171,34.835 48.729,48.706 81.594,49.026c24.569,-0.857 75.758,-9.889 81.081,-49.026c0.41,-4.728 -0.408,-14.296 -5.015,-20.21c4.503,-0.43 7.882,-2.365 11.259,-4.84c0.31,1.506 0.513,2.904 0.31,4.302c-1.229,0.858 -2.457,1.72 -3.687,2.473c1.229,0 2.354,-0.107 3.584,-0.216c1.84,20.322 -5.324,37.951 -22.627,50.745c9.42,-4.406 29.689,-20.103 24.059,-51.499c3.072,-2.688 6.554,-5.052 10.237,-7.095c0.206,1.505 0,3.117 -0.611,4.84c-9.933,5.159 -4.915,17.846 1.433,2.043c1.637,1.396 1.434,4.62 0.408,7.847c-10.238,3.656 -5.425,16.343 1.229,2.043c0.717,0.432 1.537,0.432 1.637,2.043c-3.889,1.182 -5.629,5.377 -0.203,5.268c-1.025,5.161 -4.301,10.538 -8.087,16.02c-6.244,1.615 -6.349,4.086 -6.145,6.021c-3.581,2.902 -7.269,5.807 -10.852,8.815c-5.425,0.325 -5.425,1.828 -5.837,3.548c-3.889,2.795 -7.882,5.055 -12.08,6.773c-3.48,-1.397 -5.221,0.217 -5.631,2.473c-13.514,3.871 -26.926,7.204 -39.415,8.816l0,0zm23.955,3.441c-0.512,3.01 -11.057,-3.546 -14.843,-3.871c0,0 5.936,-0.753 8.188,-1.397c0.512,3.655 7.065,2.259 6.655,5.268l0,0zm-19.759,0.215c-0.1,4.451 -15.752,0.133 -16.919,0.091c2.556,-0.45 16.919,-2.329 16.919,-0.091zm-38.903,0c0,-2.238 14.353,-0.361 16.916,0.091c-1.208,0.029 -16.815,4.368 -16.916,-0.091zm-19.76,-0.215c-0.511,-2.903 6.146,-1.612 6.657,-5.269c2.251,0.645 8.19,1.397 8.19,1.397c-3.789,0.326 -14.334,6.881 -14.847,3.872zm-23.954,-10.751c2.56,0.108 5.117,-0.216 7.68,-0.86c5.63,2.472 12.283,3.763 18.732,5.161c-12.898,1.826 -25.286,3.117 -26.412,-4.301zm4.403,-3.118c1.636,-0.54 1.944,0.646 2.866,1.29c-2.355,0.646 -4.709,0.646 -7.064,0.646c1.433,-0.54 3.379,-1.077 4.198,-1.936zm-25.903,-7.42c3.481,0.645 7.167,0.969 10.955,0.645c-0.204,0.217 12.183,7.525 12.388,7.097c-6.348,2.688 -23.956,-0.537 -23.343,-7.742zm6.962,-2.472c1.843,0.217 2.663,0.861 2.663,1.828c-2.458,0.215 -5.017,0.215 -7.372,-0.43c1.74,-0.217 3.583,-0.644 4.709,-1.398zm-22.421,-12.576c2.459,2.471 5.94,2.792 9.625,2.9c2.968,3.117 7.062,6.451 10.852,9.139c-8.497,2.472 -21.602,-7.203 -20.477,-12.039zm8.806,0.964c0.204,0.861 -5.939,0.645 -8.192,-2.043c2.764,-1.828 7.781,0.001 8.192,2.043zm-17.2,-22.898c1.432,0.428 2.662,0.966 3.481,2.041c0.615,4.302 2.764,9.139 8.6,16.666c-1.332,-0.108 -3.073,0.32 -4.402,0.859c-8.19,-8.924 -10.854,-15.482 -7.679,-19.566zm2.763,-1.723c-0.101,0.432 -0.101,0.969 -0.101,1.397c-0.512,-0.321 -1.024,-0.645 -1.638,-0.86c0.51,-0.321 1.022,-0.537 1.739,-0.537zm1.741,0.216c1.024,0.216 2.56,0.753 2.56,1.72c-0.102,1.398 -1.024,1.506 -2.356,1.077c-0.307,-0.969 -0.307,-1.83 -0.204,-2.797zm1.741,-21.932c0.409,2.473 0.614,4.837 1.024,7.204c-3.483,2.901 -2.561,7.417 -1.741,9.676c-1.126,0.646 -2.047,1.504 -2.661,3.226c-0.821,0 -1.741,0.213 -2.661,0.646c-11.979,-12.795 -3.686,-28.493 6.039,-20.752zm3.276,-5.482c3.481,0.858 4.709,4.944 10.238,8.171c-0.307,0.86 -0.715,1.936 -0.613,3.117c-2.663,-2.905 -6.144,-5.482 -10.034,-7.634c-0.309,-1.29 -0.309,-2.688 0.409,-3.654zm7.371,1.827c-1.74,-0.536 -2.456,-1.723 -4.299,-2.904c1.534,-0.107 3.786,0.216 4.299,2.904zm190.625,-1.827c0.719,0.966 0.719,2.364 0.409,3.654c-3.89,2.151 -7.371,4.729 -10.032,7.634c0.104,-1.182 -0.308,-2.257 -0.613,-3.227c5.527,-3.117 6.756,-7.311 10.236,-8.061l0,0zm-3.07,-1.077c-1.945,1.182 -2.662,2.26 -4.299,2.797c0.51,-2.581 2.762,-2.904 4.299,-2.797zm5.937,3.117c0,0 -0.41,-1.828 -1.023,-3.331c0.408,-0.752 1.332,-1.506 3.274,-2.151c-3.583,-0.323 -4.194,0.538 -5.835,1.074c-9.418,-0.752 -6.652,4.732 -9.52,6.988c-2.764,2.367 -8.496,8.173 -15.153,7.528c4.607,5.482 6.348,12.47 6.348,19.245c0,27.307 -36.036,49.131 -80.161,49.563c-25.186,0 -79.752,-11.719 -79.752,-49.563c0,-6.775 1.638,-13.763 6.348,-19.245c-6.653,0.645 -12.387,-5.161 -15.252,-7.528c-2.766,-2.256 0,-7.74 -9.42,-6.988c-1.637,-0.536 -2.251,-1.397 -5.836,-1.074c1.947,0.646 2.868,1.399 3.277,2.258c-0.614,1.396 -1.025,3.225 -1.025,3.225c-14.23,-3.547 -21.191,11.828 -8.189,25.482c-6.656,5.59 1.024,17.31 8.498,22.037c-2.151,3.766 2.763,12.258 15.663,15.914c-2.252,6.344 9.624,11.826 21.089,11.075c1.535,10.964 18.224,6.234 29.688,5.59c0.104,2.364 -6.55,1.72 -5.527,5.053c2.149,6.45 14.026,-3.763 21.5,-3.118c2.967,0.109 6.654,1.291 2.048,1.183c-6.348,0.216 -4.608,4.407 0.102,5.481c6.961,0.97 11.771,-1.827 17.096,-2.364c5.222,0.646 10.032,3.226 16.791,2.364c4.81,-1.074 6.551,-5.373 0.203,-5.481c-4.605,0.108 -0.92,-1.183 2.049,-1.29c7.474,-0.537 19.348,9.568 21.397,3.117c1.126,-3.225 -5.53,-2.58 -5.427,-4.944c11.466,0.645 28.153,5.374 29.588,-5.59c11.467,0.751 23.443,-4.731 21.191,-11.075c12.901,-3.656 17.814,-12.148 15.665,-15.914c7.473,-4.729 15.149,-16.447 8.497,-22.037c13,-13.656 6.038,-29.031 -8.192,-25.484" fill="#B6B6B6" id="path1090"/>
  <path d="m132.871,128.935c0,-1.062 1.252,-3.386 3.75,-3.386c1.404,0 3.356,1.262 3.356,3.519c0,2.26 0,9.896 0,11.356c0,1.461 -1.093,3.054 -3.278,3.054c-2.185,0 -3.828,-1.593 -3.828,-3.121c0,-1.526 0,-10.359 0,-11.422zm3.438,15.872c1.563,0 11.792,0 11.792,-9.895c0,-9.896 -8.511,-10.825 -11.401,-10.825c-1.951,0 -12.259,0.533 -12.259,10.427c-0.001,9.895 10.308,10.293 11.868,10.293" fill="#B6B6B6" id="path1092"/>
  <path d="m152.473,126.014c0.544,0.267 0.779,0.929 0.779,1.526s0,12.884 0,13.879c0,0.997 -0.469,1.859 -1.092,2.059c-0.624,0.199 -0.47,0.864 0.155,0.864c0.627,0 8.746,0 9.605,0c0.857,0 0.703,-0.597 0,-0.731c-0.703,-0.133 -1.328,-0.797 -1.328,-1.593s0,-14.743 0,-15.873c0,-1.128 -0.313,-1.393 -1.092,-1.393s-6.795,0 -6.795,0c-2.187,0 -0.783,0.995 -0.232,1.262" fill="#B6B6B6" id="path1094"/>
  <path d="m173.086,133.716c0,-0.664 0.078,-2.589 3.045,-2.589c1.017,0 2.968,0.397 2.968,2.655c0,2.259 0,5.711 0,6.443c0,0.729 -0.78,2.986 -3.122,2.986c-2.346,0 -2.891,-2.191 -2.891,-3.186c0,-0.996 0,-5.645 0,-6.309zm0.387,11.157c4.295,0 5.154,-1.395 5.154,-1.395l1.484,1.063c0,0 4.529,0 7.107,0c2.576,0 0.703,-0.931 0,-1.329s-1.248,-1.526 -1.248,-2.389c0,-0.865 0,-13.947 0,-14.679c0,-0.729 -0.313,-1.128 -0.938,-1.128s-1.018,-0.133 -2.97,-0.133c0,0 -2.497,0 -4.762,0.133c-2.413,0.142 0.081,0.864 0.625,1.128c0.547,0.267 1.406,1.13 1.406,1.529c0,0.397 0,1.328 0,1.792c0,0.466 -0.471,0.73 -0.859,0.664c-0.393,-0.065 -0.547,-0.398 -3.749,-0.398s-9.683,2.06 -9.683,7.306c0.002,5.248 4.143,7.836 8.433,7.836" fill="#B6B6B6" id="path1096"/>
  <path d="m117.801,150.808c0.705,0.139 1.798,1.091 2.813,2.045c1.015,0.953 1.482,1.975 1.482,2.519c0,0.545 -0.077,7.901 -0.077,8.854s-0.547,1.838 -1.562,2.588c-1.015,0.75 -1.015,1.361 -0.077,1.361c0.935,0 2.653,0 4.683,0c2.032,0 0.547,-0.953 0,-1.156c-0.545,-0.205 -1.483,-0.887 -1.483,-1.635s0,-6.197 0,-7.289c0,-1.09 0.703,-1.156 1.172,-0.884c0.466,0.272 7.807,8.58 8.59,9.397c0.78,0.817 1.405,1.362 2.105,1.637c0.705,0.271 3.126,0.066 4.294,0.066c1.173,0 0.783,-1.09 0.783,-1.839c0,-0.75 0.31,-11.986 0.31,-12.735s0.55,-1.839 0.939,-2.181c0.392,-0.339 3.982,-1.838 -2.032,-1.838c-6.012,0 -1.95,1.432 -1.638,1.771c0.314,0.341 0.859,2.042 1.013,3.745c0.159,1.703 -0.074,6.88 -0.074,6.88s-1.251,-0.274 -2.031,-0.886c-0.782,-0.613 -2.188,-2.315 -4.529,-5.039c-2.345,-2.725 -6.093,-6.403 -6.093,-6.403s-2.11,-0.052 -4.136,-0.138c-1.641,-0.067 -2.812,0 -4.294,0c-1.483,0.002 -0.858,1.025 -0.158,1.16" fill="#B6B6B6" id="path1098"/>
  <path d="m158.797,157.755c0,2.316 0,6.403 0,7.22s-0.94,2.929 -3.279,2.929c-2.343,0 -3.358,-2.043 -3.358,-2.929c0,-0.885 -0.078,-6.401 -0.078,-7.15s0.391,-3.679 3.356,-3.679c1.172,0 3.359,1.296 3.359,3.609l0,0zm-14.133,3.067c0,4.97 3.903,8.445 10.854,8.445c6.946,0 10.85,-2.997 10.85,-8.923s-6.787,-7.56 -11.395,-7.56c-5.313,0.001 -10.309,3.065 -10.309,8.038" fill="#B6B6B6" id="path1100"/>
  <path d="m169.748,167.755c1.647,0 2.983,-1.164 2.983,-2.602s-1.336,-2.601 -2.983,-2.601c-1.649,0 -2.984,1.164 -2.984,2.601c-0.001,1.438 1.334,2.602 2.984,2.602" fill="#B6B6B6" id="path1102"/>
  <path d="m182.456,149.201c-1.092,0.204 -1.638,0.204 -2.655,-0.41c-1.015,-0.611 -1.72,0.477 -2.187,1.363c-0.466,0.885 -1.482,4.495 -1.738,5.159c-0.543,1.429 1.096,1.089 1.482,0.407c0.393,-0.681 1.115,-2.025 2.675,-2.025c1.563,0 3.907,1.158 6.093,1.158c1.339,0 1.99,-0.277 2.265,-0.138c0.434,0.22 -0.196,0.97 -1.719,1.636c-2.498,1.09 -5.854,4.427 -5.854,7.424c0,2.998 3.355,5.244 6.087,5.244c3.356,0 6.42,-2.31 7.576,-4.018c0.595,-0.879 0.393,-1.518 0.076,-1.772c-0.936,-0.749 -2.026,0.41 -2.812,0.41c-0.778,0 -2.417,-0.886 -2.417,-2.794c0,-4.018 5.619,-8.309 6.633,-10.215c1.019,-1.908 -0.859,-2.18 -1.48,-1.77c-0.625,0.406 -1.563,0.884 -3.048,0.884c-0.489,0 -3.192,-0.749 -5.774,-0.749c-1.563,0.001 -2.112,0.001 -3.203,0.206" fill="#B6B6B6" id="path1104"/>
  <path d="m214.557,149.972c1.217,0 2.207,-0.989 2.207,-2.209c0,-1.219 -0.99,-2.207 -2.207,-2.207c-1.221,0 -2.209,0.988 -2.209,2.207c0,1.22 0.988,2.209 2.209,2.209" fill="#B6B6B6" id="path1106"/>
  <path d="m98.635,149.41c1.221,0 2.207,-0.988 2.207,-2.208s-0.986,-2.21 -2.207,-2.21c-1.22,0 -2.21,0.99 -2.21,2.21s0.99,2.208 2.21,2.208" fill="#B6B6B6" id="path1108"/>
  <path d="m129.223,179.099c-0.191,0.754 -2.118,0.543 -2.118,0.543c-0.132,-0.015 -0.343,-0.053 -0.472,-0.085l-0.695,-0.177c-0.128,-0.031 -0.207,-0.163 -0.174,-0.293l0.411,-1.615c0.033,-0.127 0.165,-0.207 0.292,-0.174l0.983,0.251c1.435,0.364 1.955,0.824 1.773,1.55zm-0.121,4.133c-0.217,0.852 -2.651,0.518 -2.651,0.518c-0.132,-0.016 -0.341,-0.058 -0.472,-0.092l-1.06,-0.268c-0.126,-0.033 -0.205,-0.164 -0.171,-0.291l0.461,-1.826c0.035,-0.127 0.164,-0.206 0.293,-0.174l1.146,0.289c2.088,0.532 2.677,0.963 2.454,1.844l0,0zm1.513,-6.5c-0.651,-0.33 -1.062,-0.463 -2.37,-0.795l-4.485,-1.139c-0.132,-0.033 -0.262,0.045 -0.295,0.174l-2.3,9.061c-0.031,0.128 0.044,0.261 0.173,0.294l5.452,1.396c1.087,0.276 1.761,0.373 2.378,0.366c1.646,-0.012 2.779,-0.736 3.083,-1.938c0.319,-1.258 -0.333,-2.271 -1.988,-3.136c1.135,-0.13 1.955,-0.694 2.157,-1.489c0.251,-0.995 -0.482,-2.131 -1.805,-2.794" fill="#B6B6B6" id="path1110"/>
  <path d="m142.556,181.658c-0.091,0.627 -1.329,0.84 -1.329,0.84c-0.131,0.023 -0.325,0.033 -0.435,0.02c-0.105,-0.01 -0.251,-0.023 -0.315,-0.029c-0.066,-0.008 -0.228,-0.025 -0.36,-0.045l-0.842,-0.121c-0.131,-0.02 -0.222,-0.142 -0.201,-0.273l0.252,-1.747c0.019,-0.134 0.142,-0.224 0.271,-0.204l1.357,0.194c1.168,0.167 1.712,0.622 1.602,1.365l0,0zm3.365,6.967c-0.052,-0.121 -0.135,-0.32 -0.186,-0.443l-0.114,-0.266c-0.05,-0.124 -0.136,-0.322 -0.187,-0.443l-0.064,-0.148c-0.051,-0.123 -0.138,-0.321 -0.187,-0.442l-0.291,-0.679c-0.446,-1.098 -0.922,-1.735 -1.556,-2.088c0.587,-0.12 0.806,-0.191 1.172,-0.357c0.752,-0.369 1.24,-1 1.343,-1.713c0.131,-0.912 -0.386,-1.905 -1.318,-2.548c-0.761,-0.502 -1.416,-0.698 -3.251,-0.964l-4.622,-0.666c-0.13,-0.017 -0.254,0.074 -0.272,0.205l-1.331,9.252c-0.021,0.133 0.071,0.254 0.204,0.271l2.718,0.393c0.125,0.019 0.248,-0.072 0.268,-0.204l0.501,-3.49c0.021,-0.13 0.144,-0.222 0.276,-0.204l0.224,0.034c0.557,0.079 0.631,0.091 0.899,0.187c0.578,0.214 1.35,1.55 1.35,1.55c0.065,0.112 0.162,0.307 0.212,0.429l0.184,0.452c0.05,0.122 0.132,0.322 0.182,0.444l0.095,0.237c0.051,0.122 0.131,0.323 0.179,0.446l0.008,0.027c0.044,0.123 0.123,0.322 0.174,0.442c0.051,0.12 0.105,0.241 0.121,0.271c0.015,0.033 0.138,0.072 0.271,0.09l2.99,0.432c0.132,0.02 0.222,-0.004 0.205,-0.051c-0.021,-0.047 -0.08,-0.186 -0.131,-0.307l-0.066,-0.149" fill="#B6B6B6" id="path1112"/>
  <path d="m156.488,185.914l-3.453,-0.087c-0.133,-0.004 -0.193,-0.101 -0.13,-0.218l1.744,-3.333c0.063,-0.116 0.16,-0.116 0.22,0.003l1.749,3.426c0.062,0.118 0,0.212 -0.13,0.209l0,0zm0.245,-5.958c-0.063,-0.116 -0.223,-0.212 -0.356,-0.218l-3.209,-0.076c-0.132,-0.006 -0.292,0.085 -0.357,0.202l-5.159,9.28c-0.066,0.114 -0.01,0.211 0.123,0.215l2.888,0.07c0.135,0.004 0.294,-0.089 0.356,-0.206l0.78,-1.495c0.061,-0.117 0.218,-0.211 0.35,-0.209l5.234,0.133c0.135,0.002 0.286,0.104 0.348,0.219l0.785,1.543c0.057,0.119 0.215,0.217 0.35,0.221l2.945,0.073c0.133,0.004 0.189,-0.089 0.128,-0.206l-5.206,-9.546" fill="#B6B6B6" id="path1114"/>
  <path d="m176.521,178.46l-2.655,0.27c-0.133,0.016 -0.229,0.134 -0.213,0.265l0.535,5.285c0.012,0.134 -0.066,0.179 -0.172,0.104l-6.995,-4.801c-0.111,-0.074 -0.304,-0.125 -0.437,-0.11l-2.412,0.244c-0.132,0.014 -0.229,0.132 -0.213,0.264l0.943,9.301c0.014,0.132 0.133,0.229 0.264,0.216l2.671,-0.271c0.131,-0.014 0.228,-0.134 0.218,-0.264l-0.568,-5.574c-0.015,-0.131 0.066,-0.177 0.172,-0.102l7.25,5.062c0.107,0.075 0.305,0.128 0.437,0.114l2.169,-0.223c0.132,-0.012 0.225,-0.131 0.213,-0.262l-0.942,-9.302c-0.016,-0.132 -0.132,-0.228 -0.265,-0.216" fill="#B6B6B6" id="path1116"/>
  <path d="m188.54,183.835c-0.613,0.355 -2.447,0.832 -2.447,0.832c-0.127,0.031 -0.336,0.08 -0.467,0.111l-0.79,0.174c-0.132,0.029 -0.259,-0.053 -0.29,-0.183l-1.217,-5.465c-0.029,-0.13 0.057,-0.259 0.184,-0.286l1.338,-0.299c1.299,-0.289 1.783,-0.354 2.475,-0.283c1.444,0.12 2.408,0.91 2.695,2.219c0.288,1.294 -0.259,2.464 -1.481,3.18zm3.783,-5.712c-0.762,-0.82 -2.069,-1.444 -3.418,-1.617c-0.756,-0.114 -1.77,-0.098 -2.676,0.032c-0.412,0.063 -0.74,0.122 -1.42,0.272l-4.851,1.078c-0.127,0.029 -0.21,0.156 -0.178,0.285l2.026,9.127c0.027,0.129 0.158,0.211 0.285,0.183l4.619,-1.013c1.114,-0.248 2.117,-0.561 2.817,-0.863c2.839,-1.221 4.229,-3.347 3.716,-5.652c-0.155,-0.719 -0.47,-1.344 -0.92,-1.832" fill="#B6B6B6" id="path1118"/>
 </g>
</svg>