<?xml version="1.0" encoding="utf-8"?>
<!-- Generator: Adobe Illustrator 15.0.0, SVG Export Plug-In . SVG Version: 6.00 Build 0)  -->
<!DOCTYPE svg PUBLIC "-//W3C//DTD SVG 1.1//EN" "http://www.w3.org/Graphics/SVG/1.1/DTD/svg11.dtd">
<svg version="1.1" id="Layer_1" xmlns="http://www.w3.org/2000/svg" xmlns:xlink="http://www.w3.org/1999/xlink" x="0px" y="0px"
	 width="2000px" height="2000px" viewBox="0 0 2000 2000" enable-background="new 0 0 2000 2000" xml:space="preserve">
<path fill="#323969" d="M2000,1000.024C2000,447.696,1552.28,0.012,1000.012,0.012C447.72,0.009,0,447.688,0,1000.024
	c0,552.252,447.72,999.968,1000.016,999.968C1552.28,1999.988,2000,1552.272,2000,1000.024z"/>
<g>
	<path fill="#FFFFFF" d="M899.238,488.014H657.355c-22.263,0-40.31,18.055-40.31,40.31v943.345c0,22.263,18.047,40.31,40.31,40.31
		h241.883c22.263,0,40.31-18.047,40.31-40.31V528.324C939.547,506.069,921.5,488.014,899.238,488.014z"/>
	<path fill="#FFFFFF" d="M1342.645,488.014h-241.883c-22.263,0-40.31,18.055-40.31,40.31v943.345c0,22.263,18.047,40.31,40.31,40.31
		h241.883c22.263,0,40.31-18.047,40.31-40.31V528.324C1382.954,506.069,1364.907,488.014,1342.645,488.014z"/>
</g>
</svg>
