<svg id="svg" version="1.1" width="2400" height="1206" xmlns="http://www.w3.org/2000/svg" xmlns:xlink="http://www.w3.org/1999/xlink" style="display: block;"><g id="svgg"><path id="path0" d="M393.083 72.518 C 389.417 75.641,384.772 79.596,382.762 81.306 C 380.752 83.017,378.006 85.354,376.660 86.500 C 375.314 87.646,373.061 89.558,371.654 90.750 C 370.247 91.942,368.005 93.845,366.673 94.981 C 365.340 96.116,363.875 97.363,363.417 97.752 C 362.958 98.141,361.758 99.164,360.750 100.025 C 359.742 100.887,357.942 102.413,356.750 103.416 C 355.558 104.420,354.501 105.318,354.400 105.412 C 354.300 105.506,353.069 106.558,351.665 107.750 C 350.261 108.942,348.013 110.854,346.669 112.000 C 345.326 113.146,342.548 115.508,340.498 117.250 C 338.447 118.992,335.712 121.317,334.420 122.417 C 333.128 123.517,330.616 125.654,328.837 127.167 C 327.058 128.679,324.586 130.782,323.343 131.841 C 322.100 132.899,318.046 136.346,314.333 139.500 C 310.621 142.654,306.566 146.101,305.323 147.159 C 298.252 153.178,295.961 155.126,289.833 160.328 C 286.121 163.480,282.371 166.669,281.500 167.415 C 280.629 168.161,276.879 171.350,273.167 174.502 C 269.454 177.654,265.404 181.096,264.167 182.151 C 262.929 183.206,261.129 184.739,260.167 185.559 C 259.204 186.379,258.004 187.404,257.500 187.837 C 256.996 188.269,255.794 189.289,254.829 190.103 C 253.864 190.917,252.369 192.183,251.506 192.917 C 244.610 198.776,243.471 199.749,242.590 200.537 L 242.083 200.990 321.042 200.995 L 400.000 201.000 400.000 133.917 C 400.000 97.021,399.944 66.835,399.875 66.837 C 399.806 66.839,396.750 69.396,393.083 72.518 " stroke="none" fill="#fc8586" fill-rule="evenodd"></path><path id="path1" d="M242.167 100.437 L 242.167 200.874 243.125 200.064 C 243.652 199.618,244.164 199.178,244.264 199.085 C 244.363 198.993,245.860 197.717,247.591 196.250 C 249.322 194.783,251.529 192.906,252.494 192.079 C 253.460 191.252,254.963 189.978,255.833 189.247 C 256.704 188.517,257.642 187.722,257.917 187.482 C 258.192 187.242,259.204 186.376,260.167 185.557 C 261.129 184.738,262.929 183.206,264.167 182.151 C 265.404 181.096,269.454 177.654,273.167 174.502 C 276.879 171.350,280.629 168.161,281.500 167.415 C 282.371 166.669,286.121 163.480,289.833 160.328 C 295.961 155.126,298.252 153.178,305.323 147.159 C 306.566 146.101,310.621 142.654,314.333 139.500 C 318.046 136.346,322.100 132.899,323.343 131.841 C 324.586 130.782,327.058 128.679,328.837 127.167 C 330.616 125.654,333.128 123.517,334.420 122.417 C 335.712 121.317,338.447 118.992,340.498 117.250 C 342.548 115.508,345.326 113.146,346.669 112.000 C 348.013 110.854,350.261 108.942,351.665 107.750 C 353.069 106.558,354.300 105.506,354.400 105.412 C 354.501 105.318,355.558 104.420,356.750 103.416 C 357.942 102.413,359.742 100.887,360.750 100.025 C 361.758 99.164,362.958 98.141,363.417 97.752 C 363.875 97.363,365.340 96.116,366.673 94.981 C 368.005 93.845,370.247 91.942,371.654 90.750 C 374.382 88.440,377.186 86.056,382.264 81.731 C 391.223 74.098,399.140 67.377,399.544 67.059 L 400.000 66.702 400.000 33.351 L 400.000 0.000 321.083 0.000 L 242.167 0.000 242.167 100.437 " stroke="none" fill="#edebed" fill-rule="evenodd"></path><path id="path2" d="M0.000 100.500 L 0.000 201.000 121.083 201.000 L 242.167 201.000 242.167 100.500 L 242.167 0.000 121.083 0.000 L 0.000 0.000 0.000 100.500 " stroke="none" fill="#fffeff" fill-rule="evenodd"></path></g></svg>