<svg id="svg" version="1.1" width="2400" height="916" xmlns="http://www.w3.org/2000/svg" xmlns:xlink="http://www.w3.org/1999/xlink" style="display: block;"><g id="svgg"><path id="path0" d="M0.000 76.333 L 0.000 152.667 84.204 152.667 L 168.408 152.667 167.322 151.542 C 166.725 150.923,165.487 149.629,164.571 148.667 C 163.654 147.704,161.932 145.904,160.744 144.667 C 159.555 143.429,157.047 140.804,155.171 138.833 C 153.294 136.862,150.892 134.350,149.832 133.250 C 148.773 132.150,147.196 130.502,146.328 129.587 C 145.460 128.673,143.736 126.873,142.497 125.587 C 141.259 124.302,138.821 121.751,137.081 119.918 C 135.341 118.085,132.974 115.610,131.821 114.418 C 130.669 113.226,129.056 111.541,128.238 110.674 C 126.882 109.238,125.478 107.771,120.814 102.918 C 119.932 102.000,118.966 100.987,118.667 100.667 C 118.003 99.955,115.773 97.623,113.089 94.831 C 111.986 93.684,110.373 91.997,109.505 91.081 C 108.638 90.166,107.063 88.516,106.005 87.415 C 102.624 83.893,100.126 81.283,98.504 79.578 C 97.636 78.664,95.986 76.941,94.838 75.748 C 93.689 74.555,91.252 72.005,89.421 70.081 C 87.590 68.157,85.294 65.758,84.318 64.750 C 83.342 63.742,82.299 62.654,82.000 62.333 C 81.069 61.336,78.850 59.007,76.756 56.831 C 75.653 55.684,73.964 53.921,73.004 52.914 C 72.044 51.907,70.507 50.295,69.588 49.331 C 68.669 48.367,66.942 46.564,65.750 45.325 C 64.558 44.085,62.873 42.323,62.005 41.410 C 61.138 40.497,59.561 38.850,58.501 37.750 C 57.441 36.650,55.039 34.137,53.162 32.167 C 51.286 30.196,48.814 27.608,47.669 26.417 C 46.524 25.225,44.944 23.575,44.159 22.750 C 42.430 20.933,40.556 18.973,33.408 11.502 C 32.313 10.357,30.627 8.594,29.663 7.585 C 28.698 6.576,27.114 4.925,26.142 3.917 C 25.170 2.908,23.944 1.615,23.416 1.042 L 22.458 0.000 11.229 0.000 L 0.000 0.000 0.000 76.333 " stroke="none" fill="#ff898a" fill-rule="evenodd"></path><path id="path1" d="M23.174 0.788 C 23.582 1.221,24.671 2.365,25.593 3.329 C 26.515 4.294,28.165 6.020,29.260 7.165 C 30.354 8.311,32.037 10.071,33.000 11.076 C 33.962 12.082,34.862 13.023,35.000 13.167 C 35.137 13.311,36.037 14.251,37.000 15.257 C 40.176 18.576,42.711 21.229,44.159 22.750 C 44.944 23.575,46.524 25.225,47.669 26.417 C 48.814 27.608,51.286 30.196,53.162 32.167 C 55.039 34.137,57.441 36.650,58.501 37.750 C 59.561 38.850,61.138 40.497,62.005 41.410 C 62.873 42.323,64.558 44.085,65.750 45.325 C 66.942 46.564,68.669 48.367,69.588 49.331 C 70.507 50.295,72.044 51.907,73.004 52.914 C 73.964 53.921,75.653 55.684,76.756 56.831 C 78.850 59.007,81.069 61.336,82.000 62.333 C 82.299 62.654,83.342 63.742,84.318 64.750 C 85.294 65.758,87.590 68.157,89.421 70.081 C 91.252 72.005,93.689 74.555,94.838 75.748 C 95.986 76.941,97.636 78.664,98.504 79.578 C 100.126 81.283,102.624 83.893,106.005 87.415 C 107.063 88.516,108.638 90.166,109.505 91.081 C 110.373 91.997,111.986 93.684,113.089 94.831 C 115.773 97.623,118.003 99.955,118.667 100.667 C 118.966 100.987,119.932 102.000,120.814 102.918 C 125.478 107.771,126.882 109.238,128.238 110.674 C 129.056 111.541,130.669 113.226,131.821 114.418 C 132.974 115.610,135.341 118.085,137.081 119.918 C 138.821 121.751,141.259 124.302,142.497 125.587 C 143.736 126.873,145.460 128.673,146.328 129.587 C 147.196 130.502,148.773 132.150,149.832 133.250 C 150.892 134.350,153.294 136.862,155.171 138.832 C 157.048 140.802,159.558 143.427,160.750 144.666 C 161.942 145.904,164.147 148.211,165.651 149.792 L 168.384 152.667 284.192 152.667 L 400.000 152.667 400.000 76.333 L 400.000 0.000 211.215 0.000 L 22.431 0.000 23.174 0.788 " stroke="none" fill="#fffeff" fill-rule="evenodd"></path></g></svg>