<?xml version="1.0" encoding="utf-8"?>
<svg xmlns="http://www.w3.org/2000/svg"
	xmlns:xlink="http://www.w3.org/1999/xlink"
	width="22px" height="22px" viewBox="0 0 22 22">
<path fillRule="evenodd" d="M 10.93 22C 10.93 22 6.82 14.5 6.83 14.51 6.86 14.55-0 10.43-0 10.43-0 10.43 20.38 0.6 21.17 0.21 21.68 0 22 0.47 21.85 0.89 21.68 1.23 10.93 22 10.93 22ZM 19.17 3.47C 19.17 3.47 8.2 13.85 8.2 13.85 8.8 15.2 10.93 19.28 10.93 19.28 10.93 19.28 19.17 3.47 19.17 3.47ZM 7.51 13.15C 7.51 13.15 7.53 13.16 7.53 13.17 7.53 13.17 18.28 2.99 18.28 2.99 18.28 2.99 2.73 10.43 2.73 10.43 2.73 10.43 7.5 13.14 7.51 13.15Z" fill="rgb(255,255,255)"/></svg>