<svg xmlns:sodipodi="http://sodipodi.sourceforge.net/DTD/sodipodi-0.dtd" xmlns:cc="http://creativecommons.org/ns#" xmlns:svg="http://www.w3.org/2000/svg" xmlns:rdf="http://www.w3.org/1999/02/22-rdf-syntax-ns#" xmlns:dc="http://purl.org/dc/elements/1.1/" xmlns:inkscape="http://www.inkscape.org/namespaces/inkscape" xmlns="http://www.w3.org/2000/svg" xmlns:xlink="http://www.w3.org/1999/xlink" version="1.1" sodipodi:docname="Twitter_bird_logo_2012.svg" inkscape:version="0.48.4 r9939" width="171.5" height="139.4" enable-background="new 0 0 171.5 139.4" xml:space="preserve"><rect id="backgroundrect" width="100%" height="100%" x="0" y="0" fill="none" stroke="none"/>
<sodipodi:namedview fit-margin-left="0" fit-margin-top="0" inkscape:zoom="3.7200571" showgrid="false" bordercolor="#666666" inkscape:cy="50.181142" inkscape:cx="101.29413" borderopacity="1.0" pagecolor="#ffffff" id="base" inkscape:current-layer="layer1" inkscape:pageopacity="0.0" inkscape:window-height="962" inkscape:window-x="-8" inkscape:window-y="-8" inkscape:document-units="px" inkscape:window-width="1280" inkscape:window-maximized="1" inkscape:pageshadow="2" fit-margin-bottom="0" fit-margin-right="0">
	</sodipodi:namedview>

<g class="currentLayer" style=""><title>Layer 1</title><g id="layer1" inkscape:label="Layer 1" inkscape:groupmode="layer" class="selected" fill="#b6b6b6" fill-opacity="1">
	<path id="path5" inkscape:connector-curvature="0" fill="#b6b6b6" d="M171.47947387695314,16.492657470703136 c-6.3,2.8 -13.1,4.7 -20.2,5.5 c7.3,-4.4 12.8,-11.2 15.5,-19.5 c-6.8,4 -14.3,7 -22.3,8.5 c-6.4,-6.8 -15.6,-11.1 -25.7,-11.1 c-19.4,0 -35.2,15.8 -35.2,35.2 c0,2.8 0.30000000000000004,5.4 0.9,8 c-29.2,-1.5 -55.2,-15.5 -72.5,-36.8 c-3,5.2 -4.8,11.2 -4.8,17.7 c0,12.2 6.2,23 15.7,29.3 c-5.8,-0.2 -11.2,-1.8 -15.9,-4.4 c0,0.1 0,0.30000000000000004 0,0.4 c0,17 12.1,31.3 28.2,34.5 c-3,0.8 -6.1,1.2 -9.3,1.2 c-2.3,0 -4.5,-0.2 -6.6,-0.6000000000000001 c4.5,14 17.5,24.2 32.9,24.4 c-12,9.4 -27.2,15.1 -43.7,15.1 c-2.8,0 -5.6,-0.2 -8.4,-0.5 c15.6,10 34.1,15.8 53.9,15.8 c64.7,0 100.1,-53.6 100.1,-100.1 c0,-1.5 0,-3 -0.1,-4.6 C160.77947387695315,29.792657470703148 166.77947387695315,23.592657470703102 171.47947387695314,16.492657470703136 L171.47947387695314,16.492657470703136 z" fill-opacity="1"/>
</g></g></svg>