<?xml version="1.0" encoding="utf-8"?>
<!-- Generator: Adobe Illustrator 16.0.0, SVG Export Plug-In . SVG Version: 6.00 Build 0)  -->
<!DOCTYPE svg PUBLIC "-//W3C//DTD SVG 1.1//EN" "http://www.w3.org/Graphics/SVG/1.1/DTD/svg11.dtd">
<svg version="1.1" id="Layer_1" xmlns="http://www.w3.org/2000/svg" xmlns:xlink="http://www.w3.org/1999/xlink" x="0px" y="0px"
	 width="595.281px" height="841.891px" viewBox="0 0 595.281 841.891" enable-background="new 0 0 595.281 841.891"
	 xml:space="preserve">
<path fill="#323969" d="M595.281,420.952c0-164.397-133.26-297.644-297.636-297.644C133.26,123.308,0,256.555,0,420.952
	c0,164.371,133.259,297.629,297.645,297.629C462.021,718.581,595.281,585.323,595.281,420.952z"/>
<g>
	<path fill="#FFFFFF" d="M297.198,273.58c-4.091-2.221-9.069-2.025-12.974,0.511l-114.143,74.133h-42.189
		c-7.013,0-12.697,5.685-12.697,12.698v111.252c0,7.013,5.685,12.697,12.697,12.697h42.189l114.143,74.135
		c2.098,1.361,4.503,2.048,6.917,2.048c2.079,0,4.165-0.51,6.058-1.537c4.091-2.222,6.64-6.504,6.64-11.159V284.739
		C303.835,280.082,301.289,275.801,297.198,273.58z"/>
	<path fill="#FFFFFF" d="M339.179,506.359c1.072,0,2.16-0.194,3.221-0.604c29.082-11.292,48.619-46.18,48.619-86.815
		c0-35.941-15.836-68.445-40.348-82.806c-4.24-2.486-9.695-1.062-12.182,3.18c-2.488,4.242-1.063,9.696,3.18,12.181
		c19.162,11.228,31.545,37.702,31.545,67.444c0,32.825-15.322,61.698-37.26,70.218c-4.584,1.776-6.855,6.936-5.076,11.52
		C332.248,504.203,335.613,506.359,339.179,506.359z"/>
	<path fill="#FFFFFF" d="M362.419,543.488c1.074,0,2.162-0.195,3.221-0.605c40.848-15.859,69.373-67.162,69.373-124.763
		c0-51.814-22.656-98.568-57.721-119.112c-4.24-2.486-9.697-1.062-12.18,3.182c-2.488,4.241-1.063,9.695,3.18,12.181
		c29.717,17.411,48.916,58.135,48.916,103.75c0,50.424-23.854,94.903-58.012,108.165c-4.584,1.777-6.857,6.937-5.076,11.521
		C355.488,541.329,358.853,543.488,362.419,543.488z"/>
	<path fill="#FFFFFF" d="M386.359,578.879c-3.605,0-7.008-2.182-8.393-5.744c-1.797-4.633,0.5-9.846,5.133-11.646
		c46.508-18.058,78.988-77.271,78.988-143.996c0-60.152-25.926-114.209-66.049-137.718c-4.289-2.513-5.727-8.024-3.217-12.313
		c2.514-4.288,8.025-5.728,12.314-3.215c45.529,26.673,74.949,86.826,74.949,153.245c0,73.979-37.205,140.091-90.475,160.772
		C388.542,578.681,387.441,578.879,386.359,578.879z"/>
</g>
</svg>
